<svg width="100" height="100" viewBox="0 0 100 100" fill="none" xmlns="http://www.w3.org/2000/svg">
<circle cx="50" cy="50" r="50" fill="#CADFFD"/>
<mask id="mask0_3494_14545" mask-typ="alpha" maskUnits="userSpaceOnUse" x="0" y="0" width="100" height="100">
<circle cx="50" cy="50" r="50" fill="#CADFFD"/>
</mask>
<g mask="url(#mask0_3494_14545)">
<path d="M49.7624 62.7018C57.8788 62.7018 64.459 54.7098 64.459 44.851C64.459 34.992 62.2986 27 49.7624 27C37.2262 27 35.0654 34.992 35.0654 44.851C35.0654 54.7098 41.6456 62.7018 49.7624 62.7018Z" fill="#346DA6"/>
<path d="M22.0029 89.958C22.0004 89.3568 21.9979 89.7886 22.0029 89.958V89.958Z" fill="#346DA6"/>
<path d="M77.5205 90.4275C77.5284 90.2629 77.5232 89.2857 77.5205 90.4275V90.4275Z" fill="#346DA6"/>
<path d="M77.4886 89.2372C77.2164 72.063 74.9734 67.1692 57.8094 64.0715C57.8094 64.0715 55.3933 67.1503 49.7619 67.1503C44.1305 67.1503 41.714 64.0715 41.714 64.0715C24.7373 67.1354 22.3579 71.9566 22.0451 88.6792C22.0194 90.0447 22.0075 90.1165 22.0029 89.958C22.004 90.255 22.0052 90.8044 22.0052 91.7623C22.0052 91.7623 26.0916 100 49.7619 100C73.4318 100 77.5186 91.7623 77.5186 91.7623C77.5186 91.1468 77.519 90.7188 77.5196 90.4277C77.5151 90.5257 77.5059 90.3357 77.4886 89.2372Z" fill="#346DA6"/>
</g>
</svg>
