<svg width="70" height="70" viewBox="0 0 70 70" fill="none" xmlns="http://www.w3.org/2000/svg">
<g clip-path="url(#clip0_5009_197)">
<path d="M68.153 46.6667C66.0141 53.375 61.8335 59.1111 56.2919 63.1944C55.028 64.1667 53.6669 65.0417 52.3058 65.7222C50.8474 66.5 49.2919 67.2778 47.6391 67.7639C47.153 67.9583 46.7641 68.0555 46.278 68.25C43.3613 69.2222 40.4446 69.7083 37.6252 69.9028C36.7502 70 35.8752 70 35.0002 70C31.5002 70 28.0974 69.5139 24.8891 68.5417C23.7224 68.25 22.653 67.7639 21.5835 67.375C20.2224 66.7917 18.8613 66.1111 17.5974 65.4306C17.5002 65.3333 17.3058 65.2361 17.2085 65.2361C15.9446 64.4583 14.778 63.6806 13.6113 62.8056C12.9308 62.3194 12.2502 61.7361 11.6669 61.1528C6.1252 56.0972 2.13908 49.3889 0.68075 41.8056C-0.388695 36.4583 -0.194251 30.5278 1.45853 24.5C3.40297 17.2083 7.8752 10.8889 13.903 6.51389C15.8474 5.15278 17.8891 3.98611 20.1252 3.01389C21.9724 2.23611 23.7224 1.65278 25.5696 1.16667C28.778 0.388889 31.9863 0 35.0002 0C42.8752 0 50.1669 2.625 56.0974 7.09722C67.3752 15.5556 73.3058 30.7222 68.153 46.6667Z" fill="#CDD3DD"/>
<path d="M29.6529 0C28.1946 0 26.8335 0.486111 25.6668 1.26389C24.5974 1.94444 23.7224 2.91667 23.0418 4.08333L22.7502 4.66667C22.0696 6.02778 21.6807 7.58333 21.6807 9.23611V20.4167H17.6946V57.3611H21.6807V67.375C20.3196 66.7917 18.9585 66.1111 17.6946 65.4306C17.5974 65.3333 17.4029 65.2361 17.3057 65.2361C16.0418 64.4583 14.8752 63.6806 13.7085 62.8056V9.13889C13.7085 8.26389 13.8057 7.38889 14.0002 6.51389C14.9724 2.72222 18.0835 0 21.6807 0H29.6529Z" fill="#454863"/>
<path d="M17.5972 57.3611H21.5833V67.375C20.2222 66.7916 18.8611 66.1111 17.5972 65.4305V57.3611Z" fill="#5B72B4"/>
<path d="M17.5972 50.5555H21.5833V60.5694C20.2222 59.9861 18.8611 59.3055 17.5972 58.625V50.5555Z" fill="#5B72B4"/>
<path d="M17.5972 19.4445H21.5833V62.2222C20.2222 59.7917 18.8611 56.9722 17.5972 53.7639V19.4445Z" fill="#5B72B4"/>
<path d="M22.6527 4.5694C21.9722 5.93051 21.5833 7.48606 21.5833 9.13884V20.4166H17.5972V8.84718C17.5972 7.87495 17.8888 6.99995 18.3749 6.3194C19.0555 5.24995 20.1249 4.5694 21.3888 4.5694H22.6527Z" fill="#5B72B4"/>
<path d="M56.0972 7.09722C55.6111 4.76389 54.3472 2.72222 52.5972 1.45833C51.3333 0.486111 49.875 0 48.3195 0H29.6528C28.1944 0 26.8333 0.486111 25.6667 1.26389C24.5972 1.94444 23.7222 2.91667 23.0417 4.08333L22.75 4.66667H23.8194C24.8889 4.66667 25.6667 5.63889 25.6667 6.80556C25.6667 8.16667 26.6389 9.23611 27.8056 9.23611H42.1945C43.3611 9.23611 44.3333 8.16667 44.3333 6.80556C44.3333 5.63889 45.2083 4.66667 46.1806 4.66667H48.5139C50.6528 4.66667 52.3056 6.61111 52.3056 8.94445V65.8195C53.6667 65.0417 55.0278 64.1667 56.2917 63.2917V9.13889C56.2917 8.36111 56.1945 7.68056 56.0972 7.09722ZM30.9167 6.125C30.1389 6.125 29.5556 5.44444 29.5556 4.56944C29.5556 3.69444 30.1389 3.01389 30.9167 3.01389C31.6944 3.01389 32.2778 3.69444 32.2778 4.56944C32.2778 5.34722 31.6944 6.125 30.9167 6.125ZM38.9861 6.125H35C34.2222 6.125 33.6389 5.44444 33.6389 4.56944C33.6389 3.69444 34.2222 3.01389 35 3.01389H38.9861C39.7639 3.01389 40.3472 3.69444 40.3472 4.56944C40.25 5.34722 39.6667 6.125 38.9861 6.125Z" fill="#4B4D74"/>
<path d="M52.3057 8.84718V65.7222C50.3613 66.7916 48.4168 67.5694 46.2779 68.25C37.4307 70.9722 28.8752 70.3888 21.5835 67.375V9.13884C21.5835 7.48606 21.9724 5.93051 22.6529 4.5694H23.7224C24.7918 4.5694 25.5696 5.54162 25.5696 6.70829C25.5696 8.0694 26.5418 9.13884 27.7085 9.13884H42.0974C43.264 9.13884 44.2363 8.0694 44.2363 6.70829C44.2363 5.54162 45.1113 4.5694 46.0835 4.5694H48.4168C50.5557 4.5694 52.3057 6.51384 52.3057 8.84718Z" fill="#6F8AC6"/>
<path d="M30.9168 6.12503C31.6685 6.12503 32.2779 5.42858 32.2779 4.56947C32.2779 3.71036 31.6685 3.01392 30.9168 3.01392C30.1651 3.01392 29.5557 3.71036 29.5557 4.56947C29.5557 5.42858 30.1651 6.12503 30.9168 6.12503Z" fill="#636595"/>
<path d="M40.2498 4.56947C40.2498 5.44447 39.6665 6.12503 38.8887 6.12503H34.9026C34.1248 6.12503 33.5415 5.44447 33.5415 4.56947C33.5415 3.69447 34.1248 3.01392 34.9026 3.01392H38.8887C39.6665 3.01392 40.2498 3.69447 40.2498 4.56947Z" fill="#636595"/>
<path d="M44.1387 56.875H21.3887V54.4444C21.3887 53.375 22.2637 52.5 23.3331 52.5H42.1942C43.2637 52.5 44.1387 53.375 44.1387 54.4444V56.875Z" fill="#EBC852"/>
<path d="M21.3887 56.875H44.1387V59.3056C44.1387 60.375 43.2637 61.25 42.1942 61.25H23.3331C22.2637 61.25 21.3887 60.375 21.3887 59.3056V56.875Z" fill="#DF9845"/>
<path d="M44.1387 56.875H32.7637V54.4444C32.7637 53.375 33.6387 52.5 34.7081 52.5H42.1942C43.2637 52.5 44.1387 53.375 44.1387 54.4444V56.875Z" fill="#EBC852"/>
<path d="M36.2637 56.875H32.7637V54.4444C32.7637 53.375 33.6387 52.5 34.7081 52.5H36.2637V56.875Z" fill="#ECD586"/>
<path d="M29.2637 56.875H21.3887V54.4444C21.3887 53.375 22.2637 52.5 23.3331 52.5H29.2637V56.875ZM32.7637 56.875H44.1387V59.3056C44.1387 60.375 43.2637 61.25 42.1942 61.25H34.7081C33.6387 61.25 32.7637 60.375 32.7637 59.3056V56.875Z" fill="#E3A846"/>
<path d="M46.7642 48.125H24.0142V45.6944C24.0142 44.625 24.8892 43.75 25.9586 43.75H44.8197C45.8892 43.75 46.7642 44.625 46.7642 45.6944V48.125Z" fill="#EBC852"/>
<path d="M24.0142 48.125H46.7642V50.5556C46.7642 51.625 45.8892 52.5 44.8197 52.5H25.9586C24.8892 52.5 24.0142 51.625 24.0142 50.5556V48.125Z" fill="#DF9845"/>
<path d="M46.7642 48.125H35.3892V45.6944C35.3892 44.625 36.2642 43.75 37.3336 43.75H44.8197C45.8892 43.75 46.7642 44.625 46.7642 45.6944V48.125Z" fill="#EBC852"/>
<path d="M38.8892 48.125H35.3892V45.6944C35.3892 44.625 36.2642 43.75 37.3336 43.75H38.8892V48.125Z" fill="#ECD586"/>
<path d="M31.8892 48.125H24.0142V45.6944C24.0142 44.625 24.8892 43.75 25.9586 43.75H31.8892V48.125ZM35.3892 48.125H46.7642V50.5556C46.7642 51.625 45.8892 52.5 44.8197 52.5H37.3336C36.2642 52.5 35.3892 51.625 35.3892 50.5556V48.125Z" fill="#E3A846"/>
<path d="M49.6807 39.375H26.9307V36.9444C26.9307 35.875 27.8057 35 28.8751 35H47.7362C48.8057 35 49.6807 35.875 49.6807 36.9444V39.375Z" fill="#EBC852"/>
<path d="M26.9307 39.375H49.6807V41.8056C49.6807 42.875 48.8057 43.75 47.7362 43.75H28.8751C27.8057 43.75 26.9307 42.875 26.9307 41.8056V39.375Z" fill="#DF9845"/>
<path d="M49.6807 39.375H38.3057V36.9444C38.3057 35.875 39.1807 35 40.2501 35H47.7362C48.8057 35 49.6807 35.875 49.6807 36.9444V39.375Z" fill="#EBC852"/>
<path d="M41.8057 39.375H38.3057V36.9444C38.3057 35.875 39.1807 35 40.2501 35H41.8057V39.375Z" fill="#ECD586"/>
<path d="M34.8057 39.375H26.9307V36.9444C26.9307 35.875 27.8057 35 28.8751 35H34.8057V39.375ZM38.3057 39.375H49.6807V41.8056C49.6807 42.875 48.8057 43.75 47.7362 43.75H40.2501C39.1807 43.75 38.3057 42.875 38.3057 41.8056V39.375Z" fill="#E3A846"/>
<path d="M45.792 30.625H23.042V28.1944C23.042 27.125 23.917 26.25 24.9864 26.25H43.8475C44.917 26.25 45.792 27.125 45.792 28.1944V30.625Z" fill="#EBC852"/>
<path d="M23.042 30.625H45.792V33.0556C45.792 34.125 44.917 35 43.8475 35H24.9864C23.917 35 23.042 34.125 23.042 33.0556V30.625Z" fill="#DF9845"/>
<path d="M45.792 30.625H34.417V28.1944C34.417 27.125 35.292 26.25 36.3614 26.25H43.8475C44.917 26.25 45.792 27.125 45.792 28.1944V30.625Z" fill="#EBC852"/>
<path d="M37.917 30.625H34.417V28.1944C34.417 27.125 35.292 26.25 36.3614 26.25H37.917V30.625Z" fill="#ECD586"/>
<path d="M30.917 30.625H23.042V28.1944C23.042 27.125 23.917 26.25 24.9864 26.25H30.917V30.625ZM34.417 30.625H45.792V33.0556C45.792 34.125 44.917 35 43.8475 35H36.3614C35.292 35 34.417 34.125 34.417 33.0556V30.625Z" fill="#E3A846"/>
<path d="M47.6387 65.625H24.8887V63.1944C24.8887 62.125 25.7637 61.25 26.8331 61.25H45.6942C46.7637 61.25 47.6387 62.125 47.6387 63.1944V65.625Z" fill="#EBC852"/>
<path d="M47.6387 65.625V67.7639C47.1526 67.9583 46.7637 68.0556 46.2776 68.25C43.3609 69.2222 40.4443 69.7083 37.6248 69.9028C36.7498 70 35.8748 70 34.9998 70C31.4998 70 28.0971 69.5139 24.8887 68.5417C24.8887 68.3472 24.7915 68.25 24.7915 68.0556V65.625H47.6387Z" fill="#DF9845"/>
<path d="M47.6387 65.625H36.2637V63.1944C36.2637 62.125 37.1387 61.25 38.2081 61.25H45.6942C46.7637 61.25 47.6387 62.125 47.6387 63.1944V65.625Z" fill="#EBC852"/>
<path d="M39.7637 65.625H36.2637V63.1944C36.2637 62.125 37.1387 61.25 38.2081 61.25H39.7637V65.625Z" fill="#ECD586"/>
<path d="M32.7637 65.625H24.8887V63.1944C24.8887 62.125 25.7637 61.25 26.8331 61.25H32.7637V65.625ZM47.6387 65.625V67.7639C47.1526 67.9583 46.7637 68.0556 46.2776 68.25C43.3609 69.2222 40.4442 69.7083 37.6248 69.9028C36.847 69.6111 36.2637 68.9306 36.2637 68.0556V65.625H47.6387Z" fill="#E3A846"/>
</g>
<defs>
<clipPath id="clip0_5009_197">
<rect width="70" height="70" fill="white"/>
</clipPath>
</defs>
</svg>
