<svg width="70" height="70" viewBox="0 0 70 70" fill="none" xmlns="http://www.w3.org/2000/svg">
<path d="M66.2714 43.3847C64.6397 48.3707 61.7387 52.9034 58.0219 56.439C54.577 59.7025 50.4975 62.1502 45.8741 63.6007C38.2591 65.9577 30.9161 65.6858 24.4796 63.4194C22.4852 62.6942 20.5814 61.7876 18.7684 60.6997C16.9553 59.6119 15.1422 58.3427 13.601 56.8923C13.3291 56.6203 12.9664 56.3483 12.6945 56.0764C7.98044 51.5436 4.62621 45.5604 3.35704 38.9426C2.35984 33.9566 2.54115 28.4267 4.08228 22.8061C6.52996 13.8312 12.9664 6.39754 21.5786 2.862C48.9564 -8.5605 75.065 16.0976 66.2714 43.3847Z" fill="#CDD3DD"/>
<path d="M65.4169 46.2283H21.0927C18.5599 46.2283 16.5698 44.2325 16.5698 41.6923V15.3834C16.5698 12.8433 18.5599 10.8474 21.0927 10.8474H65.4169C67.9498 10.8474 69.9398 12.8433 69.9398 15.3834V41.6923C69.9398 44.2325 67.9498 46.2283 65.4169 46.2283Z" fill="#B3D1E4"/>
<path d="M65.4712 46.2283H28.3541C25.8193 46.2283 23.8276 44.2325 23.8276 41.6923V15.3834C23.8276 12.8433 25.8193 10.8474 28.3541 10.8474H65.4712C68.006 10.8474 69.9976 12.8433 69.9976 15.3834V41.6923C69.9976 44.2325 68.006 46.2283 65.4712 46.2283Z" fill="#D1E2E9"/>
<path d="M61.8491 17.1979H69.9968V25.3627H61.8491V17.1979Z" fill="#474B6A"/>
<path d="M58.9684 50.7643H14.5155C11.9753 50.7643 9.97949 48.7685 9.97949 46.2283V19.9194C9.97949 17.3793 11.9753 15.3834 14.5155 15.3834H58.9684C61.5086 15.3834 63.5044 17.3793 63.5044 19.9194V46.2283C63.5044 48.7685 61.5086 50.7643 58.9684 50.7643Z" fill="#474B6A"/>
<path d="M58.9686 50.7643H21.7733C19.2332 50.7643 17.2373 48.7685 17.2373 46.2283V19.9194C17.2373 17.3793 19.2332 15.3834 21.7733 15.3834H58.9686C61.5088 15.3834 63.5046 17.3793 63.5046 19.9194V46.2283C63.5046 48.7685 61.5088 50.7643 58.9686 50.7643Z" fill="#4B4E75"/>
<path d="M23.5877 22.6412V26.27C23.5877 27.8122 22.4083 28.9916 20.866 28.9916H17.2372C15.695 28.9916 14.5156 27.8122 14.5156 26.27V22.6412C14.5156 21.0989 15.695 19.9196 17.2372 19.9196H20.866C22.4083 19.9196 23.5877 21.0989 23.5877 22.6412Z" fill="#DA8645"/>
<path d="M23.5868 22.6412V24.4556H19.0508V19.9196H20.8652C22.4074 19.9196 23.5868 21.0989 23.5868 22.6412Z" fill="#EBC953"/>
<path d="M23.5868 24.4556V26.27C23.5868 27.8122 22.4074 28.9916 20.8652 28.9916H19.0508V24.4556H23.5868Z" fill="#E3AA46"/>
<path d="M58.0621 27.1771H45.3613C44.817 27.1771 44.4541 27.54 44.4541 28.0843C44.4541 28.6286 44.817 28.9915 45.3613 28.9915H58.0621C58.6065 28.9915 58.9693 28.6286 58.9693 28.0843C58.9693 27.54 58.6065 27.1771 58.0621 27.1771Z" fill="#636594"/>
<path d="M58.0624 27.1771H53.5263C52.982 27.1771 52.6191 27.54 52.6191 28.0843C52.6191 28.6286 52.982 28.9915 53.5263 28.9915H58.0624C58.6067 28.9915 58.9696 28.6286 58.9696 28.0843C58.9696 27.54 58.6067 27.1771 58.0624 27.1771Z" fill="#7B7FB1"/>
<path d="M58.0621 23.5483H45.3613C44.817 23.5483 44.4541 23.9112 44.4541 24.4555C44.4541 24.9999 44.817 25.3627 45.3613 25.3627H58.0621C58.6065 25.3627 58.9693 24.9999 58.9693 24.4555C58.9693 23.9112 58.6065 23.5483 58.0621 23.5483Z" fill="#636594"/>
<path d="M58.0624 23.5483H53.5263C52.982 23.5483 52.6191 23.9112 52.6191 24.4555C52.6191 24.9999 52.982 25.3627 53.5263 25.3627H58.0624C58.6067 25.3627 58.9696 24.9999 58.9696 24.4555C58.9696 23.9112 58.6067 23.5483 58.0624 23.5483Z" fill="#7B7FB1"/>
<path d="M54.0704 19.9196H45.3613C44.817 19.9196 44.4541 20.2824 44.4541 20.8268C44.4541 21.3711 44.817 21.734 45.3613 21.734H54.0704C54.6148 21.734 54.9776 21.3711 54.9776 20.8268C54.9776 20.2824 54.6148 19.9196 54.0704 19.9196Z" fill="#636594"/>
<path d="M55.3407 19.9196H53.5263C52.982 19.9196 52.6191 20.2824 52.6191 20.8268C52.6191 21.3711 52.982 21.734 53.5263 21.734H55.3407C55.8851 21.734 56.2479 21.3711 56.2479 20.8268C56.2479 20.2824 55.8851 19.9196 55.3407 19.9196Z" fill="#7B7FB1"/>
<path d="M54.4325 37.1562C53.4346 37.1562 52.4367 37.5191 51.7109 38.0635C52.7996 38.8799 53.5253 40.15 53.5253 41.6923C53.5253 42.0551 53.4346 42.418 53.3439 42.7809C53.0717 43.7788 52.5274 44.686 51.7109 45.2304C52.4367 45.7747 53.4346 46.1376 54.4325 46.1376C56.5191 46.1376 58.3335 44.686 58.7871 42.7809C58.8778 42.418 58.9686 42.0551 58.9686 41.6015C58.9686 39.2428 56.882 37.1562 54.4325 37.1562Z" fill="#E3AA46"/>
<path d="M58.9686 41.6922C58.9686 42.0551 58.8778 42.5087 58.7871 42.8716C58.0614 43.4159 57.0634 43.7788 56.0655 43.7788C55.0676 43.7788 54.0697 43.4159 53.3439 42.8716C53.4346 42.5087 53.5253 42.1458 53.5253 41.7829C53.5253 40.3314 52.7996 38.9706 51.7109 38.1541C52.4367 37.6098 53.4346 37.2469 54.4325 37.2469C56.882 37.1562 58.9686 39.2428 58.9686 41.6922Z" fill="#EBC953"/>
<path d="M53.3445 42.8716C53.0723 43.8696 52.528 44.7768 51.7115 45.3211C51.1672 44.9582 50.7136 44.4139 50.4414 43.7788H50.6228C51.6208 43.7788 52.528 43.416 53.3445 42.8716Z" fill="#D66D44"/>
<path d="M51.7112 45.3211C50.9855 45.8655 49.9875 46.2283 48.9896 46.2283C46.4495 46.2283 44.4536 44.2325 44.4536 41.6923C44.4536 40.2408 45.1794 38.88 46.268 38.0635C46.9938 37.5192 47.9917 37.1563 48.9896 37.1563C49.9875 37.1563 50.9855 37.5192 51.7112 38.0635C50.6226 38.88 49.8968 40.1501 49.8968 41.6923C49.8968 42.4181 50.0783 43.1438 50.3504 43.7789C50.7133 44.4139 51.1669 44.9582 51.7112 45.3211Z" fill="#B75051"/>
<path d="M51.7109 38.1542C50.6222 38.9707 49.8965 40.2408 49.8965 41.783C49.8965 42.5088 50.0779 43.2346 50.3501 43.8696H50.5315C51.5294 43.8696 52.5274 43.5067 53.2531 42.9624C53.3439 42.5995 53.4346 42.2366 53.4346 41.8738C53.4346 40.2408 52.7995 38.9707 51.7109 38.1542Z" fill="#DA8645"/>
<path d="M49.8971 41.6923C49.8971 42.418 50.0785 43.1438 50.3507 43.7788C47.9012 43.6881 45.9961 41.6923 45.9961 39.2428C45.9961 38.8799 46.0868 38.4263 46.1775 38.0635C46.9033 37.5191 47.9012 37.1562 48.8991 37.1562C49.8971 37.1562 50.895 37.5191 51.6208 38.0635C50.6228 38.9707 49.8971 40.2407 49.8971 41.6923Z" fill="#D25862"/>
<path d="M28.571 64.11C36.4429 60.857 40.1874 51.8385 36.9344 43.9666C33.6815 36.0946 24.663 32.3502 16.791 35.6031C8.91907 38.8561 5.17463 47.8746 8.42757 55.7465C11.6805 63.6185 20.699 67.3629 28.571 64.11Z" fill="#EBC852"/>
<path d="M27.3236 61.0915C33.5286 58.5274 36.4801 51.4187 33.916 45.2138C31.3519 39.0088 24.2432 36.0573 18.0383 38.6214C11.8333 41.1855 8.88182 48.2942 11.4459 54.4991C14.01 60.7041 21.1187 63.6556 27.3236 61.0915Z" fill="#E3A846"/>
<path d="M35.5618 56.1168C34.5639 56.5704 33.4752 56.8426 32.4773 57.024C24.8568 58.5663 16.9642 54.4839 13.8797 47.0448C13.3353 45.684 12.9725 44.3232 12.791 42.8717C12.6096 41.2387 12.6096 39.515 12.8817 37.8821C7.80141 42.0552 5.89628 49.2221 8.52717 55.6632C11.7931 63.5559 20.7744 67.2754 28.6671 64.0095C32.7495 62.2858 35.7432 59.1106 37.1948 55.3004C36.5597 55.6632 36.0154 55.8447 35.5618 56.1168Z" fill="#E3A846"/>
<path d="M32.3868 57.024C31.1167 58.7477 29.393 60.1085 27.3065 61.0157C21.1375 63.5558 14.0613 60.6528 11.5211 54.4838C9.88817 50.4921 10.4325 46.2283 12.7005 42.9623C12.8819 44.3231 13.2448 45.7747 13.7891 47.1355C16.8736 54.5745 24.7663 58.5662 32.3868 57.024Z" fill="#DF9845"/>
<path d="M15.4224 65.2795C23.94 65.2795 30.8449 58.3746 30.8449 49.8571C30.8449 41.3395 23.94 34.4346 15.4224 34.4346C6.90486 34.4346 0 41.3395 0 49.8571C0 58.3746 6.90486 65.2795 15.4224 65.2795Z" fill="#EBC852"/>
<path d="M15.4226 62.0137C22.1365 62.0137 27.5791 56.571 27.5791 49.8571C27.5791 43.1433 22.1365 37.7006 15.4226 37.7006C8.70877 37.7006 3.26611 43.1433 3.26611 49.8571C3.26611 56.571 8.70877 62.0137 15.4226 62.0137Z" fill="#E3A846"/>
<path d="M24.9481 60.562C23.8594 60.562 22.7708 60.4713 21.6821 60.2899C14.0616 58.7476 8.25554 52.0343 8.25554 43.9602C8.25554 42.5087 8.43698 41.0572 8.79986 39.6964C9.25347 38.0634 9.88851 36.5211 10.7957 35.1603C4.53601 37.0655 0 42.9623 0 49.857C0 58.3847 6.89474 65.2795 15.4224 65.2795C19.8677 65.2795 23.7687 63.4651 26.581 60.4713C26.0367 60.4713 25.4924 60.562 24.9481 60.562Z" fill="#E3A846"/>
<path d="M21.6823 60.1991C19.8679 61.2878 17.6906 61.9228 15.4226 61.9228C8.70933 61.9228 3.26611 56.4796 3.26611 49.7663C3.26611 45.5025 5.4434 41.7829 8.80005 39.6057C8.43717 40.9665 8.25573 42.418 8.25573 43.8695C8.34645 52.0343 14.0618 58.7476 21.6823 60.1991Z" fill="#DF9845"/>
</svg>
