<svg width="71" height="70" viewBox="0 0 71 70" fill="none" xmlns="http://www.w3.org/2000/svg">
<g clip-path="url(#clip0_5009_38)">
<path d="M68.2472 46.5368C64.9371 56.8567 56.7591 64.9374 46.3418 68.1502C35.6325 71.4603 25.41 69.9026 17.232 65.0348C15.2848 63.8665 13.3377 62.5035 11.6826 60.9457C6.1332 56.0779 2.14155 49.3602 0.681186 41.7663C-0.389746 36.3143 -0.195031 30.4729 1.46005 24.4367C4.0887 14.7983 11.0011 6.81501 20.25 3.01807C49.652 -9.24897 77.6909 17.3296 68.2472 46.5368Z" fill="#CDD3DD"/>
<path d="M11.683 41.7664V61.0431C6.13366 56.0779 2.142 49.3602 0.681641 41.7664H11.683V41.7664Z" fill="#4B4D74"/>
<path d="M61.3354 8.66475H36.0225V5.74402C36.0225 4.67309 36.8987 3.79688 37.9696 3.79688H59.3882C60.4592 3.79688 61.3354 4.67309 61.3354 5.74402V8.66475Z" fill="#EBC852"/>
<path d="M36.0225 8.66479H61.3354V11.5855C61.3354 12.6564 60.4592 13.5327 59.3882 13.5327H37.9696C36.8987 13.5327 36.0225 12.6564 36.0225 11.5855V8.66479Z" fill="#DF9845"/>
<path d="M61.3352 8.66475H48.6787V5.74402C48.6787 4.67309 49.5549 3.79688 50.6259 3.79688H59.388C60.459 3.79688 61.3352 4.67309 61.3352 5.74402V8.66475Z" fill="#EBC852"/>
<path d="M52.573 8.66475H48.6787V5.74402C48.6787 4.67309 49.5549 3.79688 50.6259 3.79688H52.573V8.66475Z" fill="#ECD586"/>
<path d="M44.7846 8.66475H36.0225V5.74402C36.0225 4.67309 36.8987 3.79688 37.9696 3.79688H44.7846V8.66475ZM48.6789 8.66475H61.3354V11.5855C61.3354 12.6564 60.4592 13.5326 59.3882 13.5326H50.6261C49.5551 13.5326 48.6789 12.6564 48.6789 11.5855V8.66475Z" fill="#E3A846"/>
<path d="M62.309 8.66475H36.9961V5.74402C36.9961 4.67309 37.8723 3.79688 38.9432 3.79688H60.3619C61.4328 3.79688 62.309 4.67309 62.309 5.74402V8.66475Z" fill="#EBC852"/>
<path d="M36.9961 8.66479H62.309V11.5855C62.309 12.6564 61.4328 13.5327 60.3619 13.5327H38.9432C37.8723 13.5327 36.9961 12.6564 36.9961 11.5855V8.66479Z" fill="#DF9845"/>
<path d="M62.3088 8.66475H49.6523V5.74402C49.6523 4.67309 50.5286 3.79688 51.5995 3.79688H60.3617C61.4326 3.79688 62.3088 4.67309 62.3088 5.74402V8.66475Z" fill="#EBC852"/>
<path d="M53.5466 8.66475H49.6523V5.74402C49.6523 4.67309 50.5286 3.79688 51.5995 3.79688H53.5466V8.66475Z" fill="#ECD586"/>
<path d="M45.7583 8.66475H36.9961V5.74402C36.9961 4.67309 37.8723 3.79688 38.9432 3.79688H45.7583V8.66475ZM49.6526 8.66475H62.309V11.5855C62.309 12.6564 61.4328 13.5326 60.3619 13.5326H51.5997C50.5288 13.5326 49.6526 12.6564 49.6526 11.5855V8.66475Z" fill="#E3A846"/>
<path d="M59.3881 18.4005H34.0752V15.4797C34.0752 14.4088 34.9514 13.5326 36.0223 13.5326H57.441C58.5119 13.5326 59.3881 14.4088 59.3881 15.4797V18.4005Z" fill="#EBC852"/>
<path d="M34.0752 18.4006H59.3881V21.3213C59.3881 22.3922 58.5119 23.2684 57.441 23.2684H36.0223C34.9514 23.2684 34.0752 22.3922 34.0752 21.3213V18.4006Z" fill="#DF9845"/>
<path d="M59.3879 18.4005H46.7314V15.4797C46.7314 14.4088 47.6077 13.5326 48.6786 13.5326H57.4408C58.5117 13.5326 59.3879 14.4088 59.3879 15.4797V18.4005Z" fill="#EBC852"/>
<path d="M50.6257 18.4005H46.7314V15.4797C46.7314 14.4088 47.6077 13.5326 48.6786 13.5326H50.6257V18.4005Z" fill="#ECD586"/>
<path d="M42.8374 18.4005H34.0752V15.4797C34.0752 14.4088 34.9514 13.5326 36.0223 13.5326H42.8374V18.4005ZM46.7317 18.4005H59.3881V21.3212C59.3881 22.3921 58.5119 23.2683 57.441 23.2683H48.6788C47.6079 23.2683 46.7317 22.3921 46.7317 21.3212V18.4005Z" fill="#E3A846"/>
<path d="M63.2827 28.1362H37.9697V25.2155C37.9697 24.1446 38.8459 23.2684 39.9169 23.2684H61.3355C62.4064 23.2684 63.2827 24.1446 63.2827 25.2155V28.1362Z" fill="#EBC852"/>
<path d="M37.9697 28.1362H63.2827V31.057C63.2827 32.1279 62.4064 33.0041 61.3355 33.0041H39.9169C38.8459 33.0041 37.9697 32.1279 37.9697 31.057V28.1362Z" fill="#DF9845"/>
<path d="M63.2824 28.1362H50.626V25.2155C50.626 24.1446 51.5022 23.2684 52.5731 23.2684H61.3353C62.4062 23.2684 63.2824 24.1446 63.2824 25.2155V28.1362Z" fill="#EBC852"/>
<path d="M54.5203 28.1362H50.626V25.2155C50.626 24.1446 51.5022 23.2684 52.5731 23.2684H54.5203V28.1362Z" fill="#ECD586"/>
<path d="M46.7319 28.1362H37.9697V25.2155C37.9697 24.1446 38.8459 23.2684 39.9169 23.2684H46.7319V28.1362ZM50.6262 28.1362H63.2827V31.057C63.2827 32.1279 62.4064 33.0041 61.3355 33.0041H52.5733C51.5024 33.0041 50.6262 32.1279 50.6262 31.057V28.1362Z" fill="#E3A846"/>
<path d="M58.4145 37.872H33.1016V34.9513C33.1016 33.8804 33.9778 33.0042 35.0487 33.0042H56.4673C57.5383 33.0042 58.4145 33.8804 58.4145 34.9513V37.872Z" fill="#EBC852"/>
<path d="M33.1016 37.872H58.4145V40.7927C58.4145 41.8637 57.5383 42.7399 56.4673 42.7399H35.0487C33.9778 42.7399 33.1016 41.8637 33.1016 40.7927V37.872Z" fill="#DF9845"/>
<path d="M58.4143 37.872H45.7578V34.9513C45.7578 33.8804 46.634 33.0042 47.705 33.0042H56.4671C57.5381 33.0042 58.4143 33.8804 58.4143 34.9513V37.872Z" fill="#EBC852"/>
<path d="M49.6521 37.872H45.7578V34.9513C45.7578 33.8804 46.634 33.0042 47.705 33.0042H49.6521V37.872Z" fill="#ECD586"/>
<path d="M41.8637 37.872H33.1016V34.9513C33.1016 33.8804 33.9778 33.0042 35.0487 33.0042H41.8637V37.872ZM45.758 37.872H58.4145V40.7927C58.4145 41.8637 57.5383 42.7399 56.4673 42.7399H47.7052C46.6342 42.7399 45.758 41.8637 45.758 40.7927V37.872Z" fill="#E3A846"/>
<path d="M59.3881 47.6078H34.0752V44.6871C34.0752 43.6161 34.9514 42.7399 36.0223 42.7399H57.441C58.5119 42.7399 59.3881 43.6161 59.3881 44.6871V47.6078Z" fill="#EBC852"/>
<path d="M34.0752 47.6078H59.3881V50.5285C59.3881 51.5994 58.5119 52.4757 57.441 52.4757H36.0223C34.9514 52.4757 34.0752 51.5994 34.0752 50.5285V47.6078Z" fill="#DF9845"/>
<path d="M59.3879 47.6078H46.7314V44.6871C46.7314 43.6161 47.6077 42.7399 48.6786 42.7399H57.4408C58.5117 42.7399 59.3879 43.6161 59.3879 44.6871V47.6078Z" fill="#EBC852"/>
<path d="M50.6257 47.6078H46.7314V44.6871C46.7314 43.6161 47.6077 42.7399 48.6786 42.7399H50.6257V47.6078Z" fill="#ECD586"/>
<path d="M42.8374 47.6078H34.0752V44.6871C34.0752 43.6161 34.9514 42.7399 36.0223 42.7399H42.8374V47.6078ZM46.7317 47.6078H59.3881V50.5285C59.3881 51.5995 58.5119 52.4757 57.441 52.4757H48.6788C47.6079 52.4757 46.7317 51.5995 46.7317 50.5285V47.6078Z" fill="#E3A846"/>
<path d="M34.0752 47.6077H59.3881V50.3337C59.3881 51.502 58.4145 52.4756 57.2463 52.4756H36.2171C35.0488 52.4756 34.0752 51.502 34.0752 50.3337V47.6077Z" fill="#E3A846"/>
<path d="M55.4934 51.502C62.4833 51.502 68.1498 45.8355 68.1498 38.8456C68.1498 31.8556 62.4833 26.1891 55.4934 26.1891C48.5034 26.1891 42.8369 31.8556 42.8369 38.8456C42.8369 45.8355 48.5034 51.502 55.4934 51.502Z" fill="#EBC852"/>
<path d="M55.4939 48.7759C60.9784 48.7759 65.4244 44.3299 65.4244 38.8454C65.4244 33.361 60.9784 28.915 55.4939 28.915C50.0095 28.915 45.5635 33.361 45.5635 38.8454C45.5635 44.3299 50.0095 48.7759 55.4939 48.7759Z" fill="#E3A846"/>
<path d="M63.282 47.6078C62.4058 47.6078 61.5295 47.5104 60.6533 47.3157C54.3251 46.1474 49.6519 40.598 49.6519 33.9777C49.6519 32.8094 49.8466 31.6411 50.1387 30.4728C50.5282 29.1098 51.0149 27.8442 51.7938 26.7733C46.5365 28.331 42.8369 33.1988 42.8369 38.8456C42.8369 45.8553 48.4836 51.502 55.4934 51.502C59.0956 51.502 62.4058 49.9443 64.645 47.5104C64.2555 47.6077 63.7688 47.6078 63.282 47.6078Z" fill="#E3A846"/>
<path d="M60.6539 47.3155C59.1935 48.1918 57.3437 48.7759 55.4939 48.7759C50.0419 48.7759 45.5635 44.2975 45.5635 38.8455C45.5635 35.3406 47.4133 32.2252 50.1393 30.4727C49.8472 31.641 49.6525 32.8093 49.6525 33.9776C49.6525 40.5979 54.3256 46.1473 60.6539 47.3155Z" fill="#DF9845"/>
<path d="M19.4717 42.7399C19.4717 42.7399 21.9056 42.9346 24.3396 42.7399C26.092 42.5451 28.2338 41.4742 29.9863 40.8901C33.6859 39.6244 38.9432 42.7399 38.9432 42.7399C38.9432 42.7399 41.9612 44.687 45.3688 45.2712L49.6525 46.3421C49.6525 46.3421 54.5204 47.6077 52.8653 50.9179L56.1754 49.3602L61.238 47.0236L65.9112 44.5897C65.9112 44.5897 68.3451 43.6161 69.3187 45.6606C69.8055 46.6342 69.9028 47.413 69.8055 47.8998C69.8055 48.484 69.5134 49.0681 69.0266 49.4575L65.2297 52.573L60.5565 55.8831L55.0071 58.9986C55.0071 58.9986 49.0683 62.6008 44.6873 62.9902C40.3062 63.3796 31.1546 60.751 31.1546 60.751L29.2074 60.2642L22.3924 57.3435H19.4717V42.7399Z" fill="#F6E6D6"/>
<path d="M24.729 50.6258C24.6316 54.6175 26.5788 58.2197 29.5969 60.3616L29.2074 60.2642L23.366 57.7329C22.7818 57.4409 22.1003 57.3435 21.4188 57.3435H19.4717V42.7399H22.1977C24.3396 42.6425 27.8444 41.5716 29.9863 40.8901C30.2784 40.7927 30.5704 40.6954 30.8625 40.6954C27.2603 42.6425 24.8263 46.3421 24.729 50.6258Z" fill="#EBD1BC"/>
<path d="M20.4448 52.4756H11.6826V41.7663C11.6826 40.6954 12.5588 39.8192 13.6298 39.8192H18.4976C19.5686 39.8192 20.4448 40.6954 20.4448 41.7663V52.4756Z" fill="#B3D0E5"/>
<path d="M20.4448 52.4756V63.1849C20.4448 64.2558 19.5686 65.1321 18.4976 65.1321H17.232C15.2848 63.9638 13.3377 62.6008 11.6826 61.043V52.4756H20.4448V52.4756Z" fill="#9FC6D9"/>
<path opacity="0.7" d="M16.0639 47.6078C16.8704 47.6078 17.5242 46.954 17.5242 46.1474C17.5242 45.3409 16.8704 44.6871 16.0639 44.6871C15.2573 44.6871 14.6035 45.3409 14.6035 46.1474C14.6035 46.954 15.2573 47.6078 16.0639 47.6078Z" fill="white"/>
<path d="M52.8649 51.0154C51.9886 52.6704 48.8732 52.281 48.8732 52.281L38.0665 50.7233C38.0665 50.7233 36.7035 50.8207 36.8009 51.7942C36.8009 52.7678 37.9692 52.9625 37.9692 52.9625L50.3336 54.5202C50.3336 54.5202 53.449 54.3255 54.812 52.0863L56.2724 49.3603" fill="#EBD1BC"/>
</g>
<defs>
<clipPath id="clip0_5009_38">
<rect width="70.0974" height="70" fill="white"/>
</clipPath>
</defs>
</svg>
