<svg width="71" height="70" viewBox="0 0 71 70" fill="none" xmlns="http://www.w3.org/2000/svg">
<g clip-path="url(#clip0_5033_1692)">
<path d="M27.3196 1.94444C26.8335 1.94444 26.3474 2.43056 26.3474 2.91667C26.3474 3.40278 26.8335 3.88889 27.3196 3.88889C27.8057 3.88889 28.2918 3.40278 28.2918 2.91667C28.2918 2.43056 27.9029 1.94444 27.3196 1.94444ZM33.1529 1.94444H30.2363C29.7501 1.94444 29.264 2.43056 29.264 2.91667C29.264 3.40278 29.7501 3.88889 30.2363 3.88889H33.1529C33.639 3.88889 34.1251 3.40278 34.1251 2.91667C34.1251 2.43056 33.7363 1.94444 33.1529 1.94444ZM27.3196 1.94444C26.8335 1.94444 26.3474 2.43056 26.3474 2.91667C26.3474 3.40278 26.8335 3.88889 27.3196 3.88889C27.8057 3.88889 28.2918 3.40278 28.2918 2.91667C28.2918 2.43056 27.9029 1.94444 27.3196 1.94444ZM33.1529 1.94444H30.2363C29.7501 1.94444 29.264 2.43056 29.264 2.91667C29.264 3.40278 29.7501 3.88889 30.2363 3.88889H33.1529C33.639 3.88889 34.1251 3.40278 34.1251 2.91667C34.1251 2.43056 33.7363 1.94444 33.1529 1.94444ZM43.0696 0.875C44.7224 1.94444 45.7918 3.79167 45.7918 5.83333V49.5833C45.7918 52.7917 43.1668 55.4167 39.9585 55.4167H26.3474C24.2085 55.4167 22.3613 54.25 21.2918 52.5C20.8057 51.625 20.514 50.6528 20.514 49.5833V5.83333C20.514 4.76389 20.8057 3.79167 21.2918 2.91667C21.389 2.81944 21.4863 2.72222 21.4863 2.52778C21.1946 2.625 20.9029 2.72222 20.6113 2.91667C20.514 2.91667 20.4168 3.01389 20.3196 3.01389C19.5418 3.30556 18.8613 3.59722 18.1807 3.98611C17.014 4.56944 15.8474 5.25 14.7779 6.02778C8.26403 10.4028 3.59736 16.9167 1.5557 24.5C-0.0970825 30.5278 -0.291527 36.4583 0.777918 41.8055C2.23625 49.3889 6.22236 56.0972 11.764 61.0555C13.514 62.6111 15.3613 63.9722 17.3057 65.1389C24.014 69.125 32.0835 70.875 40.639 69.6111C42.4863 69.3194 44.4307 68.8333 46.3751 68.25C51.2363 66.6944 55.7085 64.0694 59.4029 60.6667C63.389 56.875 66.5001 52.1111 68.2501 46.6667C75.1529 25.2778 62.1251 5.34722 43.0696 0.875ZM30.2363 3.88889H33.1529C33.639 3.88889 34.1251 3.40278 34.1251 2.91667C34.1251 2.43056 33.639 1.94444 33.1529 1.94444H30.2363C29.7501 1.94444 29.264 2.43056 29.264 2.91667C29.264 3.40278 29.7501 3.88889 30.2363 3.88889ZM27.3196 3.88889C27.8057 3.88889 28.2918 3.40278 28.2918 2.91667C28.2918 2.43056 27.8057 1.94444 27.3196 1.94444C26.8335 1.94444 26.3474 2.43056 26.3474 2.91667C26.3474 3.40278 26.8335 3.88889 27.3196 3.88889ZM33.1529 1.94444H30.2363C29.7501 1.94444 29.264 2.43056 29.264 2.91667C29.264 3.40278 29.7501 3.88889 30.2363 3.88889H33.1529C33.639 3.88889 34.1251 3.40278 34.1251 2.91667C34.1251 2.43056 33.7363 1.94444 33.1529 1.94444ZM27.3196 1.94444C26.8335 1.94444 26.3474 2.43056 26.3474 2.91667C26.3474 3.40278 26.8335 3.88889 27.3196 3.88889C27.8057 3.88889 28.2918 3.40278 28.2918 2.91667C28.2918 2.43056 27.9029 1.94444 27.3196 1.94444Z" fill="#CDD3DD"/>
<path d="M59.4038 60.6666C55.7093 64.0693 51.3343 66.7916 46.376 68.2499C44.4315 68.8332 42.4871 69.3193 40.6399 69.611C40.3482 67.3749 39.5704 65.5277 39.5704 65.5277C39.5704 65.3332 39.4732 65.1388 39.376 65.0416C39.376 64.9443 39.2788 64.9443 39.2788 64.8471C39.2788 64.7499 39.1815 64.6527 39.1815 64.6527C38.4038 63.3888 36.8482 62.2221 35.1954 61.2499C34.2232 60.6666 33.1538 60.0832 32.376 59.6943C30.9176 59.0138 29.4593 58.1388 28.0982 57.1666C27.3204 56.5832 26.7371 55.9999 26.251 55.5138H39.8621C43.0704 55.5138 45.6954 52.8888 45.6954 49.6805V16.8193L46.9593 14.5832C46.9593 14.5832 47.9315 12.4443 50.0704 12.6388C52.3065 12.8332 52.3065 14.9721 52.3065 14.9721L52.4038 20.7082C52.501 25.9582 54.251 28.2916 54.251 28.2916C58.9176 35.1943 57.3621 41.0277 56.5843 44.5277C56.2926 45.8888 56.0982 47.1527 56.0982 48.1249V49.5832C56.0982 49.8749 56.0982 50.1666 56.1954 50.361C56.1954 50.5555 56.2926 50.7499 56.2926 50.9443L59.4038 60.6666Z" fill="#F6E6D6"/>
<path d="M52.1108 13.7083L51.333 12.9305C51.7219 13.1249 51.9163 13.4166 52.1108 13.7083Z" fill="#F6E6D6"/>
<path d="M59.4029 60.6668C55.7085 64.0695 51.3335 66.7918 46.3752 68.2501C44.4307 68.8334 42.4863 69.3195 40.639 69.6112C40.3474 67.3751 39.5696 65.5279 39.5696 65.5279C39.1807 63.9723 37.2363 62.4168 35.1946 61.1529C44.1391 60.4723 52.889 56.8751 56.2918 48.0279C56.2918 49.0001 56.2918 49.7779 56.3891 50.1668C56.3891 50.3612 56.4863 50.5557 56.4863 50.7501L59.4029 60.6668ZM20.514 22.7501V24.5001C20.1252 24.7918 19.639 24.889 19.1529 24.9862C18.6668 24.9862 18.0835 24.889 17.5974 24.5973C17.3057 24.5001 17.014 24.3057 16.8196 24.1112L14.6807 22.3612L13.8057 21.5834L13.7085 21.4862L8.36127 17.014C7.09738 15.9446 7.00016 14.0973 7.97238 12.9307C8.36127 12.5418 8.75016 12.2501 9.23627 12.0557C9.52793 11.9584 9.72238 11.9584 10.014 11.8612C10.7918 11.764 11.5696 12.0557 12.1529 12.5418L14.6807 14.6807L17.3057 16.9168L17.5974 17.2084C17.7918 17.4029 17.9863 17.6946 18.0835 17.889C18.0835 17.9862 18.1807 18.0834 18.1807 18.1807C18.1807 18.2779 18.2779 18.3751 18.2779 18.4723C18.2779 18.5696 18.2779 18.6668 18.3752 18.764V19.8334C18.2779 20.0279 19.639 21.5834 20.514 22.7501Z" fill="#EBD1BC"/>
<path d="M12.153 12.6388L17.403 17.0138C18.278 17.6944 18.5696 18.7638 18.3752 19.736C18.0835 19.8333 17.8891 19.8333 17.5974 19.9305C16.8196 20.0277 16.0418 19.736 15.4585 19.2499L10.2085 14.8749C9.33351 14.1944 9.04184 13.1249 9.23629 12.1527C9.52796 12.0555 9.7224 12.0555 10.0141 11.9583C10.7918 11.861 11.4724 12.1527 12.153 12.6388Z" fill="#F6E6D6"/>
<path d="M27.3199 3.88896C27.8568 3.88896 28.2921 3.45368 28.2921 2.91674C28.2921 2.3798 27.8568 1.94452 27.3199 1.94452C26.7829 1.94452 26.3477 2.3798 26.3477 2.91674C26.3477 3.45368 26.7829 3.88896 27.3199 3.88896Z" fill="#454863"/>
<path d="M33.1529 1.94444C33.639 1.94444 34.1251 2.43056 34.1251 2.91667C34.1251 3.40278 33.639 3.88889 33.1529 3.88889H30.2362C29.7501 3.88889 29.264 3.40278 29.264 2.91667C29.264 2.43056 29.7501 1.94444 30.2362 1.94444H33.1529ZM26.3473 55.4167H20.514C17.3057 55.4167 14.6807 52.7917 14.6807 49.5833V5.83333C14.6807 2.625 17.3057 0 20.514 0H26.3473C24.3057 0 22.5557 0.972222 21.4862 2.52778C21.4862 2.72222 21.389 2.81944 21.2918 2.91667C20.8057 3.79167 20.514 4.76389 20.514 5.83333V49.5833C20.514 50.6528 20.8057 51.625 21.2918 52.5C22.264 54.25 24.2084 55.4167 26.3473 55.4167Z" fill="#454863"/>
<path d="M20.5143 49.5834C20.5143 50.6528 20.806 51.625 21.2921 52.5H20.3199C18.7643 52.5 17.5977 51.2361 17.5977 49.7778V5.63891C17.5977 5.05558 17.7921 4.47224 18.0838 3.98613C18.6671 3.4028 19.4449 2.91669 20.3199 2.91669H21.2921C20.806 3.79169 20.5143 4.76391 20.5143 5.83335V49.5834Z" fill="#5B72B4"/>
<path opacity="0.4" d="M27.3199 3.88896C27.8568 3.88896 28.2921 3.45368 28.2921 2.91674C28.2921 2.3798 27.8568 1.94452 27.3199 1.94452C26.7829 1.94452 26.3477 2.3798 26.3477 2.91674C26.3477 3.45368 26.7829 3.88896 27.3199 3.88896Z" fill="#6F8AC6"/>
<path opacity="0.4" d="M33.1535 1.94452C33.6397 1.94452 34.1258 2.43063 34.1258 2.91674C34.1258 3.40285 33.6397 3.88896 33.1535 3.88896H30.2369C29.7508 3.88896 29.2646 3.40285 29.2646 2.91674C29.2646 2.43063 29.7508 1.94452 30.2369 1.94452H33.1535Z" fill="#6F8AC6"/>
<path d="M43.0698 0.875C42.1948 0.291667 41.1253 0 39.9587 0H26.3475C24.3059 0 22.5559 0.972222 21.4864 2.52778C21.4864 2.72222 21.3892 2.81944 21.292 2.91667H22.0698C22.8475 2.91667 23.4309 3.5 23.4309 4.27778C23.4309 5.15278 24.1114 5.83333 24.9864 5.83333H35.4864C36.3614 5.83333 37.042 5.15278 37.042 4.27778C37.042 3.5 37.6253 2.91667 38.4031 2.91667H40.1531C41.6114 2.91667 42.8753 4.18056 42.8753 5.63889V49.6806C42.8753 51.2361 41.6114 52.4028 40.1531 52.4028H21.3892C22.3614 54.1528 24.3059 55.3194 26.4448 55.3194H40.0559C43.2642 55.3194 45.8892 52.6944 45.8892 49.4861V5.83333C45.792 3.79167 44.7225 1.94444 43.0698 0.875ZM27.3198 3.88889C26.8337 3.88889 26.3475 3.40278 26.3475 2.91667C26.3475 2.43056 26.8337 1.94444 27.3198 1.94444C27.8059 1.94444 28.292 2.43056 28.292 2.91667C28.292 3.40278 27.9031 3.88889 27.3198 3.88889ZM33.1531 3.88889H30.2364C29.7503 3.88889 29.2642 3.40278 29.2642 2.91667C29.2642 2.43056 29.7503 1.94444 30.2364 1.94444H33.1531C33.6392 1.94444 34.1253 2.43056 34.1253 2.91667C34.1253 3.40278 33.7364 3.88889 33.1531 3.88889Z" fill="#4B4D74"/>
<path d="M40.1535 2.91669H38.4035C37.6258 2.91669 37.0424 3.50002 37.0424 4.2778C37.0424 5.1528 36.3619 5.83335 35.4869 5.83335H24.9869C24.1119 5.83335 23.4313 5.1528 23.4313 4.2778C23.4313 3.50002 22.848 2.91669 22.0702 2.91669H21.2924C20.8063 3.79169 20.5146 4.76391 20.5146 5.83335V49.5834C20.5146 50.6528 20.8063 51.625 21.2924 52.5H40.0563C41.6119 52.5 42.7785 51.2361 42.7785 49.7778V5.63891C42.8758 4.18058 41.6119 2.91669 40.1535 2.91669Z" fill="#6F8AC6"/>
<path d="M13.9039 36.9444L19.1539 41.3194C20.0289 42 20.3206 43.0694 20.1261 44.0416C20.0289 44.5278 19.8345 45.0139 19.4456 45.4028C18.9595 45.9861 18.1817 46.375 17.5011 46.4722C16.7234 46.5694 15.9456 46.2777 15.3622 45.7916L10.1122 41.4166C8.84836 40.3472 8.75113 38.5 9.72336 37.3333C10.1122 36.9444 10.5011 36.6528 10.9872 36.4583C11.2789 36.3611 11.4734 36.3611 11.765 36.2639C12.5428 36.1666 13.3206 36.4583 13.9039 36.9444Z" fill="#EBD1BC"/>
<path d="M13.903 36.9444L19.153 41.3194C20.028 42 20.3196 43.0694 20.1252 44.0416C19.8335 44.1389 19.6391 44.1389 19.3474 44.2361C18.5696 44.3333 17.7918 44.0416 17.2085 43.5555L11.9585 39.1805C11.0835 38.5 10.7918 37.4305 10.9863 36.4583C11.278 36.3611 11.4724 36.3611 11.7641 36.2639C12.5418 36.1666 13.3196 36.4583 13.903 36.9444Z" fill="#F6E6D6"/>
<path d="M13.9039 29.361L19.1539 33.736C20.0289 34.4166 20.3206 35.486 20.1261 36.4583C20.0289 36.9444 19.8345 37.4305 19.4456 37.8194C18.9595 38.4027 18.1817 38.7916 17.5011 38.8888C16.7234 38.986 15.9456 38.6944 15.3622 38.2083L10.1122 33.8333C8.84836 32.7638 8.75113 30.9166 9.72336 29.7499C10.1122 29.361 10.5011 29.0694 10.9872 28.8749C11.2789 28.7777 11.4734 28.7777 11.765 28.6805C12.5428 28.5833 13.3206 28.7777 13.9039 29.361Z" fill="#EBD1BC"/>
<path d="M13.903 29.361L19.153 33.736C20.028 34.4166 20.3196 35.486 20.1252 36.4583C19.8335 36.5555 19.6391 36.5555 19.3474 36.6527C18.5696 36.7499 17.7918 36.4583 17.2085 35.9722L11.9585 31.5972C11.0835 30.9166 10.7918 29.8472 10.9863 28.8749C11.278 28.7777 11.4724 28.7777 11.7641 28.6805C12.5418 28.5833 13.3196 28.7777 13.903 29.361Z" fill="#F6E6D6"/>
<path d="M13.9039 21.6806L19.1539 26.0556C20.0289 26.7361 20.3206 27.8056 20.1261 28.7778C20.0289 29.2639 19.8345 29.75 19.4456 30.1389C18.9595 30.7222 18.1817 31.1111 17.5011 31.2083C16.7234 31.3056 15.9456 31.0139 15.3622 30.5278L10.1122 26.1528C8.84836 25.0833 8.75113 23.2361 9.72336 22.0694C10.1122 21.6806 10.5011 21.3889 10.9872 21.1944C11.2789 21.0972 11.4734 21.0972 11.765 21C12.5428 21 13.3206 21.1944 13.9039 21.6806Z" fill="#EBD1BC"/>
<path d="M13.903 21.6806L16.8196 24.1111L19.153 26.0556C20.028 26.7361 20.3196 27.8056 20.1252 28.7778C19.8335 28.875 19.6391 28.875 19.3474 28.9722C18.5696 29.0694 17.7918 28.7778 17.2085 28.2917L11.9585 23.9167C11.0835 23.2361 10.7918 22.1667 10.9863 21.1944C11.278 21.0972 11.4724 21.0972 11.7641 21C12.5418 21 13.3196 21.1944 13.903 21.6806Z" fill="#F6E6D6"/>
<path d="M27.3199 3.88896C27.8568 3.88896 28.2921 3.45368 28.2921 2.91674C28.2921 2.3798 27.8568 1.94452 27.3199 1.94452C26.7829 1.94452 26.3477 2.3798 26.3477 2.91674C26.3477 3.45368 26.7829 3.88896 27.3199 3.88896Z" fill="#636595"/>
<path d="M34.1258 2.91674C34.1258 3.40285 33.6397 3.88896 33.1535 3.88896H30.2369C29.7508 3.88896 29.2646 3.40285 29.2646 2.91674C29.2646 2.43063 29.7508 1.94452 30.2369 1.94452H33.1535C33.7369 1.94452 34.1258 2.43063 34.1258 2.91674Z" fill="#636595"/>
<path d="M31.2093 20.4167H26.3482C25.7649 20.4167 25.376 20.0278 25.376 19.4445V14.5834C25.376 14 25.7649 13.6111 26.3482 13.6111H31.2093C31.7926 13.6111 32.1815 14 32.1815 14.5834V19.4445C32.1815 20.0278 31.7926 20.4167 31.2093 20.4167Z" fill="#464866"/>
<path d="M28.293 16.5278L30.2374 18.4723L35.0985 13.6111" stroke="url(#paint0_linear_5033_1692)" stroke-width="3" stroke-miterlimit="10" stroke-linecap="round" stroke-linejoin="round"/>
<path d="M31.2093 33.0556H26.3482C25.7649 33.0556 25.376 32.6667 25.376 32.0833V27.2222C25.376 26.6389 25.7649 26.25 26.3482 26.25H31.2093C31.7926 26.25 32.1815 26.6389 32.1815 27.2222V32.0833C32.1815 32.6667 31.7926 33.0556 31.2093 33.0556Z" fill="#464866"/>
<path d="M28.293 29.1667L30.2374 31.1111L35.0985 26.25" stroke="url(#paint1_linear_5033_1692)" stroke-width="3" stroke-miterlimit="10" stroke-linecap="round" stroke-linejoin="round"/>
<path d="M31.2093 46.6667H26.3482C25.7649 46.6667 25.376 46.2778 25.376 45.6945V40.8334C25.376 40.25 25.7649 39.8611 26.3482 39.8611H31.2093C31.7926 39.8611 32.1815 40.25 32.1815 40.8334V45.6945C32.1815 46.2778 31.7926 46.6667 31.2093 46.6667Z" fill="#464866"/>
<path d="M28.293 42.7778L30.2374 44.7223L35.0985 39.8611" stroke="url(#paint2_linear_5033_1692)" stroke-width="3" stroke-miterlimit="10" stroke-linecap="round" stroke-linejoin="round"/>
</g>
<defs>
<linearGradient id="paint0_linear_5033_1692" x1="26.8187" y1="16.0417" x2="36.5409" y2="16.0417" gradientUnits="userSpaceOnUse">
<stop stop-color="#A3CFB9"/>
<stop offset="1" stop-color="#79C0C0"/>
</linearGradient>
<linearGradient id="paint1_linear_5033_1692" x1="26.8187" y1="28.6806" x2="36.5409" y2="28.6806" gradientUnits="userSpaceOnUse">
<stop stop-color="#A3CFB9"/>
<stop offset="1" stop-color="#79C0C0"/>
</linearGradient>
<linearGradient id="paint2_linear_5033_1692" x1="26.8187" y1="42.2917" x2="36.5409" y2="42.2917" gradientUnits="userSpaceOnUse">
<stop stop-color="#A3CFB9"/>
<stop offset="1" stop-color="#79C0C0"/>
</linearGradient>
<clipPath id="clip0_5033_1692">
<rect width="70" height="70" fill="white" transform="translate(0.0976562)"/>
</clipPath>
</defs>
</svg>
