<svg width="22" height="22" viewBox="0 0 22 22" fill="none" xmlns="http://www.w3.org/2000/svg">
<path d="M20.4765 16.4293L19.6996 15.9117C21.4518 12.8299 21.4322 9.0487 19.6482 5.98523C17.8643 2.92177 14.5854 1.03856 11.0403 1.04149C10.8562 1.04149 10.707 1.19069 10.707 1.37478C10.707 1.55887 10.8562 1.70807 11.0403 1.70807C14.3392 1.70561 17.3917 3.45364 19.0591 6.30013C20.7265 9.14659 20.7585 12.664 19.143 15.5403L16.4269 13.7295C15.9131 13.3898 15.2246 13.5016 14.8447 13.9864L13.6668 15.5026C13.5151 15.7024 13.2398 15.7603 13.0205 15.6387L12.7962 15.515C12.0526 15.1097 11.1273 14.6051 9.26313 12.7402C7.39894 10.8754 6.89331 9.94941 6.48799 9.20717L6.36499 8.98285C6.24153 8.76365 6.2984 8.48699 6.4983 8.33423L8.0135 7.15534C8.4983 6.77548 8.61029 6.08702 8.27082 5.57312L5.57103 1.52477C5.22309 1.00149 4.5251 0.844391 3.98651 1.16815L2.29364 2.18507C1.76172 2.49778 1.37148 3.00422 1.20474 3.59828C0.595137 5.81943 1.05373 9.6528 6.70063 15.3004C9.16044 17.7602 11.2753 19.2334 13.0635 20.0667C10.3112 20.6885 7.4255 20.0229 5.22368 18.2583C3.02186 16.4937 1.74364 13.8224 1.75102 11.0007C1.75102 10.8167 1.60182 10.6674 1.41773 10.6674C1.23364 10.6674 1.08443 10.8167 1.08443 11.0007C1.08959 16.4976 5.54342 20.953 11.0403 20.9599C12.0701 20.9603 13.0936 20.799 14.0734 20.482C14.9574 20.8121 15.8917 20.9874 16.8352 20.9999C17.3642 21.0022 17.8911 20.9334 18.4017 20.7953C18.9959 20.6288 19.5024 20.2385 19.815 19.7064L20.8329 18.0146C21.1571 17.4758 21.0001 16.7774 20.4765 16.4293ZM20.2599 17.6715L19.2443 19.3644C19.0197 19.7491 18.6549 20.0318 18.2264 20.1533C17.2568 20.42 15.9435 20.4533 14.256 19.845C14.2293 19.83 14.2005 19.8188 14.1707 19.8117C12.3041 19.1187 9.98666 17.6419 7.17122 14.8274C1.75169 9.40817 1.28473 5.82544 1.84769 3.77463C1.9694 3.34622 2.25212 2.98145 2.63662 2.7567L4.32949 1.74112C4.56318 1.6005 4.86613 1.66866 5.01709 1.89575L6.48366 4.09757L7.71458 5.94375C7.86199 6.16667 7.81355 6.46543 7.60326 6.63038L6.08771 7.80927C5.6265 8.16194 5.49479 8.80005 5.77875 9.3065L5.89909 9.52515C6.32508 10.3064 6.85468 11.2783 8.7882 13.2115C10.7217 15.1447 11.6933 15.6744 12.4742 16.1003L12.6932 16.2209C13.1996 16.5049 13.8378 16.3732 14.1904 15.912L15.3693 14.3964C15.5343 14.1863 15.833 14.1379 16.056 14.2851L20.104 16.9849C20.3311 17.1353 20.3998 17.4377 20.2599 17.6715Z" fill="#003366" stroke="#003366" stroke-width="0.5"/>
</svg>
