<svg width="20" height="20" viewBox="0 0 20 20" fill="none" xmlns="http://www.w3.org/2000/svg">
<path d="M10 0C4.48609 0 0 4.48609 0 10C0 15.5139 4.48609 20 10 20C15.5139 20 20 15.5139 20 10C20 4.48609 15.5139 0 10 0ZM10.4167 19.1455V17.9166C10.4167 17.6863 10.2303 17.5 10 17.5C9.76969 17.5 9.58332 17.6863 9.58332 17.9166V19.1455C4.86191 18.9318 1.0682 15.1381 0.854414 10.4166H2.08332C2.31363 10.4167 2.5 10.2303 2.5 10C2.5 9.76969 2.31363 9.58332 2.08332 9.58332H0.854414C1.0682 4.86191 4.86187 1.0682 9.58332 0.854414V2.08332C9.58332 2.31363 9.76969 2.5 10 2.5C10.2303 2.5 10.4167 2.31363 10.4167 2.08332V0.854414C15.1381 1.0682 18.9318 4.86187 19.1456 9.58332H17.9167C17.6864 9.58332 17.5 9.76969 17.5 10C17.5 10.2303 17.6864 10.4167 17.9167 10.4167H19.1456C18.9318 15.1381 15.1381 18.9318 10.4167 19.1455Z" fill="#FF8900"/>
<path d="M10.7916 10.203C10.8088 10.1363 10.8327 10.0719 10.8327 9.99994C10.8327 9.82552 10.7663 9.67251 10.6743 9.53857L13.2936 3.92615C13.3909 3.71783 13.3009 3.46958 13.0922 3.37236C12.8843 3.27669 12.6361 3.36583 12.5384 3.57376L9.92102 9.18247C9.50008 9.224 9.16602 9.56833 9.16602 9.99994C9.16602 10.4593 9.53996 10.8333 9.99934 10.8333C10.0713 10.8333 10.1357 10.8094 10.2024 10.7922L13.4547 14.0445C13.5361 14.1259 13.6427 14.1666 13.7493 14.1666C13.8559 14.1666 13.9625 14.1259 14.0439 14.0445C14.2067 13.8817 14.2067 13.6181 14.0439 13.4553L10.7916 10.203Z" fill="#FF8900"/>
</svg>
