<svg width="151" height="60" viewBox="0 0 151 60" fill="none" xmlns="http://www.w3.org/2000/svg">
<g clip-path="url(#clip0_8669_36032)">
<path d="M62.5233 54.3016C62.5233 54.3016 71.9608 38.8827 73.6461 31.676C75.3313 24.4693 75.4999 20.6145 68.9273 19.9441C62.1862 19.2737 54.6025 19.9441 54.6025 19.9441C54.6025 19.9441 65.2197 13.2402 79.2075 13.743C93.3637 14.0782 101.453 19.9441 101.453 19.9441C101.453 19.9441 98.4195 21.1173 93.5322 21.4525C88.645 21.9553 86.7912 22.9609 87.1282 28.4916C87.4653 34.0223 89.4876 37.8771 89.4876 37.8771C89.4876 37.8771 81.5668 32.6815 76.6796 37.8771C71.7923 43.0726 70.7811 45.419 67.9162 48.7709C65.2197 52.1229 62.5233 54.3016 62.5233 54.3016Z" fill="#136BB5"/>
<path d="M78.7017 0C82.0723 0 84.7687 2.68156 84.7687 6.03352C84.7687 9.38548 82.0723 12.067 78.7017 12.067C75.3312 12.067 72.6348 9.38548 72.6348 6.03352C72.6348 2.68156 75.4997 0 78.7017 0Z" fill="#F8A81B"/>
<path d="M3.70752 39.2179C3.53899 40.2235 3.70752 42.4022 4.2131 43.5754C5.05573 45.5866 6.741 46.5922 8.93185 46.5922C11.4598 46.5922 13.3135 45.7542 14.4932 44.9162L14.9988 47.9329C13.4821 48.9385 10.9542 49.7765 8.08921 49.7765C2.52783 49.7765 0.168457 45.5866 0.168457 40.5586C0.168457 33.5195 4.88721 25.81 11.6283 25.81C15.6729 25.81 17.8638 28.4916 17.8638 31.676C17.5267 37.7095 11.4598 39.3855 3.70752 39.2179ZM10.9542 28.8268C7.58363 28.8268 5.05573 32.514 4.04457 36.2011C9.60596 36.2011 14.1562 35.3631 14.1562 31.8436C14.1562 29.8324 12.808 28.8268 10.9542 28.8268ZM35.3905 38.7151C34.7164 42.7374 34.3794 46.7598 34.5479 49.4413H31.1774C31.1774 48.1005 31.3459 45.9218 31.683 43.4078H31.5144C29.1551 48.1005 26.2901 49.9441 23.4251 49.9441C19.7176 49.9441 17.3582 46.7598 17.3582 42.2346C17.3582 34.1899 22.751 25.81 31.8515 25.81C33.8738 25.81 36.0647 26.1452 37.4129 26.648L35.3905 38.7151ZM31.0089 28.8268C25.616 28.8268 21.2343 35.0279 21.0658 41.3966C21.0658 43.9106 21.9084 46.4246 24.6048 46.4246C27.6383 46.4246 31.1774 42.067 32.1885 36.0335L33.3682 28.9944C33.0312 28.9944 32.1885 28.8268 31.0089 28.8268ZM50.7265 29.8324C50.0524 29.3296 48.7042 28.8268 47.0189 28.8268C44.828 28.8268 43.3113 30.3352 43.3113 32.3464C43.3113 34.0223 44.3225 35.0279 46.1763 36.2011C48.5356 37.7095 50.0524 39.7207 50.0524 42.2346C50.0524 47.095 46.5133 49.7765 41.9631 49.7765C39.7722 49.7765 37.7499 48.9385 36.7388 48.2681L37.7499 45.419C38.7611 46.0894 40.6149 46.9274 42.3001 46.9274C44.6595 46.9274 46.3448 45.2514 46.3448 43.2402C46.3448 41.3966 45.6707 40.391 43.4798 39.0503C41.1205 37.5419 39.7722 35.5307 39.7722 33.1843C39.7722 29.162 42.9743 25.9776 47.356 25.9776C49.2097 25.9776 50.895 26.4804 51.7376 27.1508L50.7265 29.8324ZM63.0289 43.743C60.8381 48.7709 58.6472 52.7933 55.7823 55.81C53.4229 58.4916 50.895 59.4972 49.7153 59.8324L48.8727 56.4804C49.7153 56.1452 51.2321 55.4749 52.7488 54.3017C54.097 53.1285 55.6138 51.2849 56.7935 48.9385C56.962 48.6033 56.962 48.2681 56.962 47.9329L52.7488 26.3128H56.4564L58.4787 38.7151C58.9843 41.3966 59.1528 43.0726 59.4899 44.7486H59.6584C60.164 43.2402 60.8381 41.7318 61.8493 39.0503L67.2421 26.1452H70.7812L63.0289 43.743Z" fill="#252525"/>
<path d="M99.2624 49.7765C97.0716 49.7765 95.5548 49.2737 94.7122 48.7709H94.5437L92.8584 58.6592H89.3193L93.5325 34.3575C94.0381 31.5084 94.3751 28.4916 94.7122 26.1452H97.9142L97.2401 30.5028H97.4086C99.2624 27.486 102.127 25.6425 104.824 25.6425C109.374 25.6425 111.228 29.6648 111.228 34.0223C111.396 42.2346 106.172 49.7765 99.2624 49.7765ZM103.644 28.9944C100.779 28.9944 97.2401 32.514 96.2289 39.0503L95.2178 45.419C96.0604 46.257 97.5772 46.7598 99.2624 46.7598C103.813 46.7598 107.689 40.3911 107.689 34.3575C107.689 31.8436 106.678 28.9944 103.644 28.9944ZM129.766 38.7151C129.092 42.7374 128.755 46.7598 128.923 49.4413H125.553C125.553 48.1006 125.721 45.9218 126.058 43.4078H125.89C123.53 48.1006 120.834 49.9441 117.8 49.9441C114.093 49.9441 111.733 46.7598 111.733 42.2346C111.733 34.1899 117.126 25.8101 126.227 25.8101C128.249 25.8101 130.44 26.1452 131.788 26.648L129.766 38.7151ZM125.384 28.8268C119.991 28.8268 115.61 35.0279 115.61 41.3966C115.61 43.9106 116.452 46.4246 119.149 46.4246C122.182 46.4246 125.721 42.067 126.732 36.0335L127.912 28.9944C127.406 28.9944 126.564 28.8268 125.384 28.8268ZM143.248 43.743C141.057 48.7709 138.866 52.7933 136.001 55.8101C133.642 58.4916 131.114 59.4972 129.934 59.8324L129.092 56.4804C129.934 56.1453 131.451 55.4749 132.968 54.3017C134.316 53.1285 135.833 51.2849 137.012 48.9385C137.181 48.6033 137.181 48.2682 137.181 47.933L132.968 26.3128H136.675L138.698 38.7151C139.203 41.3966 139.372 43.0726 139.709 44.7486H139.877C140.383 43.2402 141.057 41.7318 142.068 39.0503L147.293 26.1452H151L143.248 43.743Z" fill="#252525"/>
</g>
<defs>
<clipPath id="clip0_8669_36032">
<rect width="151" height="60" fill="white"/>
</clipPath>
</defs>
</svg>
