<svg width="15" height="25" viewBox="0 0 15 25" fill="none" xmlns="http://www.w3.org/2000/svg">
<path d="M8.76465 25H4.76112C4.09241 25 3.54843 24.456 3.54843 23.7873V14.7572H1.21269C0.543976 14.7572 0 14.213 0 13.5445V9.67503C0 9.00631 0.543976 8.46233 1.21269 8.46233H3.54843V6.52466C3.54843 4.60339 4.15173 2.96879 5.29289 1.79787C6.43921 0.621605 8.04119 0 9.92565 0L12.9789 0.00495908C13.6465 0.00610352 14.1895 0.550079 14.1895 1.21765V4.81033C14.1895 5.47905 13.6457 6.02303 12.9772 6.02303L10.9215 6.02379C10.2945 6.02379 10.1349 6.14948 10.1007 6.18801C10.0445 6.25191 9.97753 6.43253 9.97753 6.9313V8.46214H12.8227C13.0369 8.46214 13.2444 8.51498 13.4228 8.61454C13.8075 8.8295 14.0467 9.23595 14.0467 9.67522L14.0451 13.5447C14.0451 14.213 13.5012 14.757 12.8325 14.757H9.97753V23.7873C9.97753 24.456 9.43336 25 8.76465 25ZM5.01404 23.5344H8.51173V14.101C8.51173 13.6545 8.87508 13.2914 9.3214 13.2914H12.5795L12.5809 9.92794H9.32121C8.87489 9.92794 8.51173 9.56478 8.51173 9.11827V6.9313C8.51173 6.35872 8.56991 5.70755 9.00211 5.21812C9.52435 4.62646 10.3474 4.55818 10.9211 4.55818L12.7239 4.55742V1.47018L9.92451 1.46561C6.89602 1.46561 5.01404 3.40424 5.01404 6.52466V9.11827C5.01404 9.56459 4.65088 9.92794 4.20456 9.92794H1.46561V13.2914H4.20456C4.65088 13.2914 5.01404 13.6545 5.01404 14.101V23.5344ZM12.9761 1.47057H12.9763H12.9761Z" fill="#FF8900"/>
</svg>
