<svg width="22" height="10" viewBox="0 0 22 10" fill="none" xmlns="http://www.w3.org/2000/svg">
<path d="M1 4.4C0.668629 4.4 0.4 4.66863 0.4 5C0.4 5.33137 0.668629 5.6 1 5.6L1 4.4ZM21.4243 5.42427C21.6586 5.18995 21.6586 4.81005 21.4243 4.57574L17.6059 0.757362C17.3716 0.523047 16.9917 0.523047 16.7574 0.757362C16.523 0.991677 16.523 1.37158 16.7574 1.60589L20.1515 5L16.7574 8.39412C16.523 8.62843 16.523 9.00833 16.7574 9.24264C16.9917 9.47696 17.3716 9.47696 17.6059 9.24264L21.4243 5.42427ZM1 5.6L21 5.6L21 4.4L1 4.4L1 5.6Z" fill="white"/>
</svg>
