<svg width="146" height="49" viewBox="0 0 146 49" fill="none" xmlns="http://www.w3.org/2000/svg">
<path d="M118.804 11.6799C118.804 5.22571 112.937 0 105.699 0C103.732 0 101.871 0.381111 100.196 1.07608L114.686 20.1765C117.344 17.9189 118.826 14.8612 118.804 11.6799Z" fill="#E14C9A"/>
<path d="M0 0V38.3817C0 44.2225 4.37027 49 9.73333 49V10.6183L9.72847 10.459C9.63843 4.66725 5.31927 0 0 0ZM36.8991 38.3621V38.3645H24.7227V29.8214H36.8991C39.1402 29.8214 40.9579 31.7324 40.9579 34.0917C40.9579 36.4511 39.1402 38.3621 36.8991 38.3621ZM42.0894 20.1586L42.1088 20.1047C42.6872 18.4485 42.9817 16.7054 42.98 14.9499C42.98 6.7522 36.7068 0.1029 28.9372 0.01225C28.8934 0.01225 28.5965 0 28.487 0H14.6049C14.6049 5.8212 19.0092 10.6036 24.657 10.6403H28.779C31.0226 10.6403 32.8403 12.5513 32.8403 14.9107C32.8403 17.27 31.0226 19.1835 28.779 19.1835V19.1884H19.6297C16.8971 19.2031 14.6827 21.4938 14.6073 24.3554L14.6049 24.3309V24.3995L14.6 24.5049L14.6049 24.6078V38.3547C14.6049 44.1955 19.0749 48.9338 24.6107 48.9975H24.618L24.7227 49L24.8273 48.9975H37.3711C44.9948 48.7354 51.1 42.1473 51.1 34.0648C51.1 27.7389 47.3624 22.3391 42.0894 20.1586ZM79.0833 38.3572C71.8636 38.3572 66.0115 32.1538 66.0115 24.5049C66.0115 16.8536 71.8636 10.6501 79.0833 10.6501C86.303 10.6501 92.1552 16.8536 92.1552 24.5049C92.1552 32.1538 86.303 38.3572 79.0833 38.3572ZM79.0809 0C66.3059 0 55.9667 10.9564 55.9667 24.5C55.9667 38.0436 66.3035 49 79.0809 49C91.8608 49 102.2 38.0436 102.2 24.5C102.2 10.9564 91.8608 0 79.0809 0ZM146 0.97265C144.349 0.330779 142.594 0.00104614 140.824 0C135.744 0 131.266 2.6509 128.641 6.67135H128.638L117.798 23.5739C117.798 23.5739 102.2 47.9538 102.2 48.0249C103.813 48.6521 105.558 48.9975 107.383 48.9975C112.466 48.9975 116.941 46.3466 119.567 42.3262H119.569V42.3213L124.197 35.1967L128.83 42.6104C131.468 46.474 135.848 49 140.802 49C142.632 49 144.384 48.657 145.998 48.0249L131.042 24.6397C133.792 20.3032 146 1.0437 146 0.97265Z" fill="#3D3F40"/>
</svg>
