<svg width="124" height="51" viewBox="0 0 124 51" fill="none" xmlns="http://www.w3.org/2000/svg">
<path d="M80.3145 21.183V35.3887H82.6737V29.4152H82.7239C83.3263 30.369 84.531 30.9714 85.8361 30.9714C88.6973 30.9714 90.5044 28.6623 90.5044 25.9517C90.5044 23.1406 88.5969 20.9822 85.9365 20.9822C84.1796 20.9822 83.1255 21.8355 82.6737 22.5885H82.5733V21.2834H80.3145V21.183ZM85.3843 22.8395C87.2416 22.8395 88.095 24.3956 88.095 25.8513C88.095 27.307 87.1914 28.9133 85.3843 28.9133C83.6274 28.9133 82.6235 27.3572 82.6235 25.9015C82.6235 24.4458 83.6274 22.8395 85.3843 22.8395Z" fill="#F29022"/>
<path d="M95.1737 15.7617H92.8145V30.6702H95.1737V15.7617Z" fill="#F29022"/>
<path d="M106.719 30.6702V21.2332H104.36V26.4034C104.36 27.6584 103.657 28.9635 102.151 28.9635C100.645 28.9635 100.394 27.558 100.394 26.4536V21.2332H98.0352V27.1564C98.0352 29.0639 99.0391 30.9713 101.499 30.9713C102.904 30.9713 104.009 30.118 104.41 29.1643H104.46V30.6702H106.719Z" fill="#F29022"/>
<path d="M112.642 22.6892C113.496 22.6892 114.299 23.1409 114.7 23.6931L116.256 22.3378C115.504 21.384 114.048 20.8821 112.693 20.8821C110.835 20.8821 108.928 21.7856 108.928 23.8939C108.928 25.6508 110.333 26.2531 111.739 26.5543C113.194 26.9057 113.897 27.1065 113.897 27.9096C113.897 28.763 113.094 29.014 112.391 29.014C111.387 29.014 110.484 28.512 109.982 27.8092L108.426 29.265C109.329 30.2689 110.835 30.8211 112.291 30.8211C114.349 30.8211 116.206 29.9677 116.206 27.6587C116.206 25.8014 114.55 25.199 113.144 24.8476C111.839 24.5464 111.086 24.3457 111.086 23.5927C111.136 22.9903 111.889 22.6892 112.642 22.6892Z" fill="#F29022"/>
<path d="M116.808 8.53346C116.557 8.23228 116.205 8.08169 115.754 8.08169C115.001 8.08169 114.348 8.68406 114.348 9.4872C114.348 9.83858 114.499 10.19 114.7 10.3907C118.464 14.5571 120.522 19.9282 120.522 25.5502C120.522 38.0994 110.332 48.2894 97.7832 48.2894C85.234 48.2894 75.044 38.0994 75.044 25.5502C75.044 13.001 85.234 2.81102 97.7832 2.81102C99.7911 2.81102 101.749 3.06201 103.656 3.56398C103.757 3.61417 103.907 3.61417 104.008 3.61417C104.761 3.61417 105.413 3.01181 105.413 2.20866C105.413 1.5561 104.961 1.05413 104.409 0.853346C102.251 0.301181 100.042 0 97.7832 0C83.7281 0 72.2832 11.4449 72.2832 25.5C72.2832 39.5551 83.7281 51 97.7832 51C111.838 51 123.283 39.5551 123.283 25.5C123.333 19.2756 121.024 13.2018 116.808 8.53346Z" fill="#F29022"/>
<path d="M106.968 7.27879H108.625V8.93529C108.625 9.68824 109.227 10.3408 110.03 10.3408C110.783 10.3408 111.436 9.73844 111.436 8.93529V7.27879H113.092C113.845 7.27879 114.498 6.67643 114.498 5.87328C114.498 5.12033 113.895 4.46777 113.092 4.46777H111.436V2.81127C111.436 2.05832 110.833 1.40576 110.03 1.40576C109.277 1.40576 108.625 2.00812 108.625 2.81127V4.46777H106.968C106.215 4.46777 105.562 5.07013 105.562 5.87328C105.613 6.62623 106.215 7.27879 106.968 7.27879Z" fill="#F29022"/>
<path d="M15.8622 17.0668L13.503 18.9743C13.0512 18.3719 12.499 17.9202 11.7461 17.619C10.9931 17.3178 10.2402 17.1672 9.4872 17.1672C7.68012 17.1672 6.22441 17.7696 5.12008 19.0245C3.96555 20.2292 3.41339 21.7853 3.41339 23.5924C3.41339 25.4999 3.96555 27.056 5.01968 28.2607C6.12402 29.4655 7.52953 30.0678 9.33661 30.0678C11.1939 30.0678 12.5994 29.4153 13.6033 28.0097L16.1132 29.7666C14.4567 31.8247 12.1978 32.8286 9.33661 32.8286C6.57579 32.8286 4.36713 31.9753 2.61024 30.2184C0.853346 28.5117 0 26.2529 0 23.5422C0 20.7814 0.903543 18.5727 2.71063 16.866C4.51772 15.2095 6.77657 14.3562 9.5374 14.3562C10.7421 14.3562 11.9469 14.6072 13.1516 15.059C14.3061 15.5107 15.2096 16.1633 15.8622 17.0668Z" fill="#002B5D"/>
<path d="M17.9199 32.3769V20.4803H20.7811V22.4882H20.8313C21.1827 21.7854 21.6345 21.2332 22.2369 20.7815C22.8392 20.3799 23.542 20.1289 24.2949 20.1289C24.5961 20.1289 24.7969 20.1289 24.9977 20.1791V22.8897C24.6463 22.7893 24.3451 22.7893 24.0941 22.7893C23.5922 22.7893 23.1404 22.8897 22.7388 23.0403C22.3372 23.1909 22.0361 23.3917 21.7851 23.6427C21.5843 23.8937 21.3835 24.1447 21.2329 24.496C21.0823 24.7972 20.9819 25.0984 20.9317 25.3494C20.8815 25.6004 20.8815 25.8012 20.8815 26.0019V32.3769H17.9199Z" fill="#002B5D"/>
<path d="M37.999 26.5543C37.999 26.9056 37.999 27.1566 37.999 27.3574H28.9636C29.0138 28.1605 29.4153 28.8633 30.0679 29.4155C30.7205 29.9676 31.4734 30.2688 32.3769 30.2688C33.7323 30.2688 34.7864 29.7668 35.5393 28.7127L37.5472 30.319C36.3927 31.9253 34.686 32.6783 32.4271 32.6783C30.5699 32.6783 29.0138 32.1261 27.809 30.9716C26.6043 29.8672 26.002 28.3111 26.002 26.4539C26.002 24.5464 26.6043 23.0405 27.809 21.8357C29.0138 20.6812 30.5197 20.0789 32.3268 20.0789C34.0334 20.0789 35.439 20.631 36.4931 21.7354C37.497 22.8899 37.999 24.4962 37.999 26.5543ZM28.9636 25.2491H35.0876C35.0876 24.446 34.8366 23.7432 34.3848 23.1911C33.8829 22.6389 33.2303 22.3879 32.3268 22.3879C31.4734 22.3879 30.7205 22.6389 30.0679 23.1911C29.3651 23.693 29.0138 24.3958 28.9636 25.2491Z" fill="#002B5D"/>
<path d="M52.3055 13.6033V32.3267H49.4443V30.5197H49.3941C48.9925 31.2224 48.4403 31.7244 47.6874 32.0758C46.9344 32.4271 46.1313 32.6279 45.3281 32.6279C43.5712 32.6279 42.1657 32.0256 41.0614 30.7706C40.0072 29.5659 39.4551 28.06 39.4551 26.2529C39.4551 24.4458 40.0072 22.9901 41.0614 21.7854C42.1657 20.5807 43.521 19.9783 45.2277 19.9783C46.8842 19.9783 48.2395 20.5807 49.2435 21.8356H49.2937V13.5029H52.3055V13.6033ZM43.3704 23.6929C42.7681 24.4458 42.4669 25.3494 42.4669 26.3533C42.4669 27.3573 42.7681 28.2608 43.3704 29.064C43.9728 29.8169 44.8261 30.2185 45.8803 30.2185C46.9344 30.2185 47.7878 29.8169 48.3901 29.064C49.0427 28.311 49.3439 27.4075 49.3439 26.4035C49.3439 25.3996 49.0427 24.496 48.3901 23.7431C47.7376 22.9399 46.8842 22.5384 45.8803 22.5384C44.8261 22.5384 43.9728 22.9399 43.3704 23.6929Z" fill="#002B5D"/>
<path d="M55.2162 17.6694C54.8648 17.3181 54.6641 16.9165 54.6641 16.4145C54.6641 15.9125 54.8648 15.511 55.2162 15.1596C55.5676 14.8082 56.0194 14.6074 56.5715 14.6074C57.1237 14.6074 57.5755 14.758 57.9269 15.1094C58.2782 15.4608 58.479 15.8623 58.479 16.3643C58.479 16.8663 58.2782 17.3181 57.9269 17.6192C57.5755 17.9706 57.0735 18.1212 56.5715 18.1212C56.0194 18.2216 55.5676 18.0208 55.2162 17.6694ZM55.1158 32.3771V20.4805H58.0774V32.3771H55.1158Z" fill="#002B5D"/>
<path d="M62.0444 22.8394H59.9863V20.4802H62.0444V17.0166H64.9558V20.4802H67.9174V22.8394H65.006V28.3611C65.006 28.9634 65.1064 29.4152 65.3072 29.7164C65.508 30.0176 65.9598 30.1682 66.5621 30.1682C67.0641 30.1682 67.5159 30.0678 67.817 29.9172L67.9174 32.2262C67.3653 32.427 66.7127 32.5274 65.9096 32.5274C64.4539 32.5274 63.4499 32.176 62.8977 31.4231C62.3456 30.6701 62.0444 29.6662 62.0444 28.3611V22.8394Z" fill="#002B5D"/>
</svg>
