<svg width="150" height="58" viewBox="0 0 150 58" fill="none" xmlns="http://www.w3.org/2000/svg">
<g clip-path="url(#clip0_8670_36044)">
<path fill-rule="evenodd" clip-rule="evenodd" d="M102.422 33.4049L103.903 33.8517C103.803 34.2658 103.647 34.612 103.434 34.8901C103.222 35.1695 102.956 35.3803 102.636 35.5225C102.32 35.6622 101.918 35.732 101.428 35.732C100.833 35.732 100.347 35.6472 99.9687 35.4776C99.5942 35.303 99.2695 34.9986 98.9945 34.5646C98.7215 34.1305 98.585 33.5742 98.585 32.8957C98.585 31.9926 98.825 31.2991 99.305 30.8151C99.7885 30.3287 100.47 30.0855 101.349 30.0855C102.037 30.0855 102.579 30.2252 102.972 30.5046C103.368 30.784 103.662 31.2105 103.854 31.7843L102.361 32.1136C102.311 31.9465 102.256 31.8255 102.198 31.7506C102.104 31.6209 101.989 31.5224 101.853 31.455C101.716 31.3852 101.563 31.3502 101.393 31.3502C101.011 31.3502 100.717 31.5037 100.513 31.8105C100.359 32.04 100.281 32.3992 100.281 32.8882C100.281 33.4944 100.374 33.9097 100.559 34.1342C100.744 34.3588 101.004 34.471 101.337 34.471C101.661 34.471 101.905 34.3812 102.069 34.2016C102.236 34.022 102.357 33.7601 102.432 33.4158L102.422 33.4049ZM104.508 32.9095C104.508 32.0189 104.756 31.3254 105.254 30.829C105.751 30.3326 106.443 30.0844 107.331 30.0844C108.242 30.0844 108.944 30.3288 109.437 30.8178C109.931 31.3042 110.177 31.9872 110.177 32.8669C110.177 33.505 110.069 34.0283 109.853 34.437C109.64 34.8436 109.33 35.1617 108.923 35.3912C108.518 35.6172 108.013 35.7302 107.408 35.7302C106.793 35.7302 106.283 35.6329 105.878 35.4383C105.478 35.2437 105.151 34.9334 104.899 34.5073C104.649 34.0832 104.524 33.5519 104.524 32.9133L104.508 32.9095ZM106.197 32.917C106.197 33.4678 106.299 33.8637 106.503 34.1047C106.708 34.3454 106.987 34.4658 107.339 34.4658C107.702 34.4658 107.983 34.347 108.183 34.1095C108.381 33.8721 108.479 33.4488 108.479 32.8399C108.479 32.326 108.374 31.9514 108.164 31.7162C107.957 31.4767 107.676 31.357 107.321 31.357C106.978 31.357 106.704 31.4767 106.499 31.7162C106.292 31.9532 106.188 32.3511 106.188 32.9099L106.197 32.917ZM111.073 30.1772H113.296L114.155 33.4977L115.009 30.1772H117.225V35.6344H115.845V31.4734L114.776 35.6344H113.528L112.463 31.4734V35.6344H111.075V30.1775L111.073 30.1772ZM118.291 30.1772H121.101C121.713 30.1772 122.17 30.3223 122.474 30.6127C122.78 30.9028 122.933 31.3154 122.933 31.8505C122.933 32.4011 122.766 32.8311 122.433 33.1404C122.102 33.4497 121.596 33.6044 120.915 33.6044H119.989V35.6303H118.292V30.1712L118.291 30.1772ZM119.989 32.5035H120.403C120.729 32.5035 120.958 32.4478 121.089 32.3362C121.221 32.2222 121.287 32.0772 121.287 31.9011C121.287 31.7297 121.23 31.5845 121.116 31.4655C121.001 31.3458 120.786 31.2859 120.471 31.2859H119.988V32.502L119.989 32.5035ZM123.821 30.1772H125.508V34.291H128.144V35.6344H123.817V30.1775L123.821 30.1772ZM128.988 30.1772H130.679V35.6344H128.984V30.1775L128.988 30.1772ZM135.254 34.7337H133.327L133.061 35.6348H131.332L133.387 30.179H135.228L137.283 35.6385H135.517L135.247 34.7404L135.254 34.7337ZM134.898 33.5539L134.291 31.5923L133.687 33.5539H134.891H134.898ZM137.838 30.1772H139.417L141.476 33.1961V30.1772H143.069V35.6344H141.476L139.428 32.6378V35.6351H137.838V30.1768V30.1772ZM143.812 30.1772H148.949V31.525H147.224V35.6344H145.537V31.5257H143.812V30.1779V30.1772Z" fill="#225E63"/>
<path fill-rule="evenodd" clip-rule="evenodd" d="M82.0738 38.5075L86.9687 36.9681L85.3839 33.445C84.2049 34.8932 83.0439 36.7716 82.0727 38.5041L82.0738 38.5075ZM80.4062 22.3798L70.8077 1.04175L0.539062 5.02317L20.0061 58.0277L57.4798 46.2413C55.1023 42.8227 54.2248 38.7586 56.9773 36.7724C60.0636 34.5497 64.7023 37.1204 67.6836 40.7762C70.5448 35.9791 78.5698 24.9067 80.4073 22.3809L80.4062 22.3798Z" fill="#225E63"/>
<path fill-rule="evenodd" clip-rule="evenodd" d="M68.6267 16.4592C71.5678 16.4592 73.9524 14.2152 73.9524 11.4469C73.9524 8.67864 71.5652 6.4361 68.6252 6.4361C65.6829 6.4361 63.2991 8.68013 63.2991 11.4488C63.2991 14.2178 65.6829 16.4615 68.6256 16.4615L68.6267 16.4592ZM64.2692 18.6333H72.9842V41.3401H64.2692V18.6341V18.6333ZM59.9661 25.2603C60.0261 25.2966 60.0786 25.2666 60.0786 25.1952V19.4431C60.0786 19.3697 60.0261 19.2822 59.9623 19.2477C59.9623 19.2477 58.8186 18.5042 55.3311 18.2973C55.1436 18.1944 52.1061 18.179 51.2661 18.2973C38.5911 19.3113 38.1223 28.4611 38.1223 28.8795V31.1003C38.1223 31.3716 38.1223 40.7268 51.2661 41.5553C52.5486 41.6518 55.0648 41.5553 55.3311 41.5553C58.3573 41.5553 60.4536 40.6449 60.4536 40.6449C60.5173 40.6157 60.5736 40.5364 60.5736 40.4638V35.0791C60.5736 35.0058 60.5248 34.9796 60.4611 35.0174C60.4611 35.0174 59.5198 35.7732 55.3836 36.1736C54.2098 36.3046 53.6548 36.2447 53.2311 36.1736C47.3661 35.1895 47.0848 30.9012 47.0848 30.9012C47.0773 30.8301 47.0698 30.7141 47.0698 30.6431V29.0078C47.0698 28.9367 47.0773 28.8207 47.0848 28.7496C47.0848 28.7496 47.4786 24.1545 53.2273 23.6681H55.3761C57.9148 24.0086 59.9511 25.2621 59.9511 25.2621L59.9661 25.2603ZM13.9502 41.2496C13.9502 41.3222 14.0076 41.3805 14.0803 41.3805H22.5696C22.6416 41.3805 22.7001 41.3222 22.7001 41.2522V34.6615C22.7001 34.5919 22.7582 34.5365 22.8313 34.5392C22.8313 34.5392 36.3827 35.5169 36.3827 26.4394C36.3827 19.2765 27.8803 18.4915 25.0813 18.6225C25.0251 18.6262 14.0818 18.6225 14.0818 18.6225C14.0106 18.6225 13.9506 18.6842 13.9506 18.7542V41.2507L13.9502 41.2496ZM22.5501 29.5036V23.5667H24.6268C24.6268 23.5667 27.6493 23.7029 27.8856 25.7538C27.9418 25.9147 27.9268 26.9176 27.8856 26.9737C27.4993 29.3865 24.8743 29.5048 24.8743 29.5048L22.5568 29.501L22.5501 29.5036Z" fill="#FEFEFE"/>
<path fill-rule="evenodd" clip-rule="evenodd" d="M68.8656 52.3033C69.5744 52.3033 70.1163 52.3033 71.0118 51.9066C74.1066 50.2834 84.5219 24.9018 95.5075 17.0946C95.5713 17.0445 95.6624 16.9719 95.7149 16.8974C95.7854 16.7945 95.788 16.6894 95.788 16.6894C95.788 16.6894 95.788 16.1693 94.159 16.1693C84.379 15.9036 74.209 36.3607 68.8653 44.4545C68.7978 44.5444 68.4303 44.4545 68.4303 44.4545C68.4303 44.4545 64.849 40.2374 61.7365 38.6209C61.6728 38.5872 61.3165 38.4787 60.949 38.5049C60.7053 38.5049 59.2578 38.793 58.5828 39.5077C57.7878 40.3459 57.8028 40.8174 57.8103 41.8389C57.814 41.9213 57.8665 42.2618 57.964 42.4339C58.7253 43.7623 62.2015 48.5295 65.0478 51.1601C65.4903 51.4744 66.1615 52.3089 68.869 52.3089L68.8656 52.3033Z" fill="#2BBC5D"/>
<path fill-rule="evenodd" clip-rule="evenodd" d="M98.3955 9.40192H106.533C108.138 9.40192 109.432 9.61895 110.415 10.053C111.407 10.4876 112.225 11.1112 112.87 11.924C113.515 12.7347 113.982 13.6793 114.272 14.7578C114.562 15.8354 114.707 16.9767 114.707 18.1816C114.707 20.0701 114.49 21.5381 114.055 22.5859C113.628 23.6236 113.031 24.4968 112.265 25.2052C111.5 25.9037 110.677 26.369 109.799 26.601C108.597 26.9203 107.509 27.08 106.533 27.08H98.3959V9.39593L98.3955 9.40192ZM103.874 13.4077V23.0731H105.213C106.358 23.0731 107.172 22.9484 107.656 22.6989C108.139 22.4419 108.518 22.0004 108.791 21.3742C109.064 20.7381 109.2 19.7128 109.2 18.2984C109.2 16.4249 108.893 15.1427 108.279 14.4517C107.666 13.7607 106.65 13.4151 105.231 13.4151H103.865L103.874 13.4077ZM116.197 21.2395L121.406 20.914C121.518 21.7597 121.747 22.4033 122.092 22.8448C122.655 23.5608 123.461 23.9188 124.511 23.9188C125.293 23.9188 125.893 23.7379 126.311 23.3762C126.736 23.007 126.948 22.5804 126.948 22.0964C126.948 21.6399 126.746 21.2308 126.341 20.8691C125.936 20.5074 125.001 20.1668 123.536 19.8475C121.133 19.3087 119.42 18.5927 118.395 17.6997C117.362 16.8091 116.846 15.6715 116.846 14.287C116.846 13.379 117.108 12.5233 117.633 11.72C118.163 10.9093 118.957 10.2744 120.015 9.8154C121.08 9.34891 122.535 9.11566 124.38 9.11566C126.642 9.11566 128.366 9.5385 129.551 10.3842C130.741 11.2224 131.45 12.5582 131.677 14.3918L126.513 14.6949C126.376 13.8991 126.085 13.3204 125.64 12.9586C125.202 12.5969 124.597 12.416 123.825 12.416C123.187 12.416 122.707 12.5533 122.385 12.8277C122.06 13.0946 121.897 13.4201 121.897 13.8043C121.897 14.0862 122.03 14.3394 122.295 14.5639C122.552 14.7984 123.165 15.0167 124.132 15.2188C126.527 15.7351 128.24 16.259 129.271 16.7904C130.311 17.3142 131.065 17.9666 131.532 18.7474C132.01 19.5282 132.249 20.4013 132.249 21.3668C132.249 22.5018 131.934 23.5483 131.304 24.5062C130.674 25.4642 129.795 26.1922 128.667 26.6904C127.542 27.1769 126.122 27.4201 124.406 27.4201C121.391 27.4201 119.302 26.8413 118.14 25.6838C116.978 24.5263 116.32 23.0545 116.168 21.2683L116.197 21.2395ZM133.668 21.2395L138.877 20.914C138.99 21.7597 139.218 22.4033 139.563 22.8448C140.126 23.5608 140.932 23.9188 141.982 23.9188C142.765 23.9188 143.365 23.7379 143.782 23.3762C144.21 23.007 144.423 22.5804 144.423 22.0964C144.423 21.6399 144.221 21.2308 143.816 20.8691C143.411 20.5074 142.476 20.1668 141.011 19.8475C138.608 19.3087 136.895 18.5927 135.87 17.6997C134.837 16.8091 134.321 15.6715 134.321 14.287C134.321 13.379 134.582 12.5233 135.105 11.72C135.637 10.9093 136.431 10.2744 137.486 9.8154C138.548 9.34891 140.003 9.11566 141.851 9.11566C144.113 9.11566 145.837 9.5385 147.022 10.3842C148.215 11.2224 148.923 12.5582 149.148 14.3918L143.988 14.6911C143.848 13.8954 143.557 13.3166 143.115 12.9549C142.68 12.5932 142.075 12.4123 141.3 12.4123C140.662 12.4123 140.182 12.5495 139.86 12.8239C139.535 13.0908 139.372 13.4176 139.372 13.8043C139.372 14.0862 139.505 14.3394 139.77 14.5639C140.027 14.7984 140.64 15.0167 141.607 15.2188C144.002 15.7327 145.716 16.2553 146.748 16.7866C147.786 17.3105 148.54 17.9628 149.01 18.7437C149.485 19.5245 149.722 20.3976 149.722 21.363C149.722 22.4981 149.408 23.5446 148.781 24.5025C148.151 25.4604 147.271 26.1889 146.141 26.6878C145.016 27.1767 143.596 27.4212 141.881 27.4212C138.866 27.4212 136.777 26.8412 135.615 25.6812C134.455 24.5237 133.797 23.0519 133.642 21.2657L133.668 21.2395Z" fill="#225E63"/>
</g>
<defs>
<clipPath id="clip0_8670_36044">
<rect width="150" height="58" fill="white"/>
</clipPath>
</defs>
</svg>
