<svg width="20" height="20" viewBox="0 0 20 20" fill="none" xmlns="http://www.w3.org/2000/svg">
<g clip-path="url(#clip0_9244_42880)">
<path d="M19.4752 15.4302L18.6983 14.9126C20.4504 11.831 20.4308 8.0501 18.647 4.98684C16.8631 1.92359 13.5844 0.0405061 10.0396 0.0434353C9.85552 0.0434353 9.70632 0.192632 9.70632 0.376706C9.70632 0.56078 9.85552 0.709977 10.0396 0.709977C13.3382 0.707516 16.3905 2.45542 18.0579 5.30172C19.7252 8.14797 19.7571 11.6652 18.1418 14.5413L15.4258 12.7305C14.9121 12.3909 14.2236 12.5027 13.8437 12.9875L12.6659 14.5036C12.5142 14.7033 12.2389 14.7612 12.0197 14.6396L11.7954 14.5159C11.0518 14.1106 10.1266 13.6061 8.26255 11.7413C6.39849 9.87663 5.8929 8.95075 5.48761 8.20855L5.36462 7.98425C5.24116 7.76506 5.29803 7.48842 5.49792 7.33567L7.01301 6.15686C7.49778 5.77704 7.60976 5.08862 7.27032 4.57475L4.57072 0.526684C4.2228 0.00344127 3.52486 -0.153645 2.9863 0.170096L1.29355 1.18694C0.761671 1.49963 0.371456 2.00603 0.204723 2.60005C-0.404835 4.82105 0.0537292 8.65415 5.70024 14.3013C8.15987 16.761 10.2746 18.2341 12.0626 19.0673C9.31052 19.6891 6.42505 19.0235 4.22339 17.2591C2.02172 15.4946 0.743588 12.8234 0.75097 10.002C0.75097 9.81792 0.601773 9.66873 0.417699 9.66873C0.233625 9.66873 0.0844281 9.81792 0.0844281 10.002C0.0895836 15.4985 4.5431 19.9535 10.0396 19.9605C11.0694 19.9609 12.0928 19.7996 13.0725 19.4826C13.9564 19.8127 14.8906 19.9879 15.8341 20.0005C16.363 20.0028 16.8899 19.934 17.4005 19.7959C17.9947 19.6294 18.5012 19.2391 18.8136 18.7071L19.8315 17.0153C20.1557 16.4766 19.9987 15.7782 19.4752 15.4302ZM19.2585 16.6723L18.243 18.3651C18.0185 18.7497 17.6537 19.0325 17.2252 19.1539C16.2557 19.4206 14.9425 19.4539 13.2551 18.8456C13.2283 18.8306 13.1996 18.8194 13.1698 18.8123C11.3034 18.1194 8.98604 16.6427 6.17079 13.8284C0.751634 8.40954 0.284711 4.82706 0.847635 2.77639C0.969336 2.34802 1.25203 1.98326 1.6365 1.75853L3.32926 0.743019C3.56294 0.602415 3.86586 0.670569 4.01681 0.897644L5.48328 3.09931L6.71411 4.94536C6.86151 5.16826 6.81308 5.46701 6.6028 5.63194L5.08736 6.81075C4.62618 7.16339 4.49448 7.80146 4.77842 8.30787L4.89875 8.52651C5.32471 9.30772 5.85428 10.2796 7.78766 12.2126C9.72105 14.1457 10.6926 14.6753 11.4734 15.1012L11.6924 15.2218C12.1988 15.5057 12.8369 15.3741 13.1895 14.9129L14.3683 13.3975C14.5333 13.1873 14.8319 13.1389 15.0549 13.2862L19.1026 15.9858C19.3297 16.1361 19.3984 16.4385 19.2585 16.6723Z" fill="#FF8900"/>
</g>
<defs>
<clipPath id="clip0_9244_42880">
<rect width="20" height="20" fill="white"/>
</clipPath>
</defs>
</svg>
