<svg width="26" height="25" viewBox="0 0 26 25" fill="none" xmlns="http://www.w3.org/2000/svg">
<path d="M21.6385 3.55091C19.3486 1.26095 16.3046 0 13.066 0C13.0658 0 13.065 0 13.0648 0C11.463 0.000190735 9.90206 0.310326 8.42558 0.922012C6.94891 1.5337 5.62597 2.41814 4.4932 3.55091C2.20343 5.84068 0.942477 8.88519 0.942477 12.1235C0.942477 14.0547 1.40844 15.9739 2.29135 17.6838L0.253543 23.5054C0.10992 23.9161 0.211581 24.3624 0.519427 24.67C0.734767 24.8856 1.0182 25 1.30964 25C1.43457 25 1.56084 24.979 1.68405 24.9359L7.50566 22.8983C9.2156 23.7812 11.1348 24.2472 13.066 24.2472C16.3043 24.2472 19.3486 22.986 21.6385 20.6963C23.9283 18.4065 25.1895 15.362 25.1895 12.1237C25.1895 8.88519 23.9285 5.84068 21.6385 3.55091ZM20.6017 19.6594C18.5889 21.6724 15.9125 22.7808 13.066 22.7808C11.3246 22.7808 9.59459 22.3501 8.06299 21.5349C7.78528 21.3873 7.45703 21.3619 7.16234 21.4651L1.87326 23.3162L3.72454 18.0271C3.82772 17.732 3.80217 17.4038 3.65454 17.1263C2.83953 15.5951 2.40866 13.8651 2.40866 12.1235C2.40866 9.27696 3.51721 6.60057 5.53003 4.58775C7.54267 2.57511 10.2187 1.46656 13.065 1.46618H13.066C15.9127 1.46618 18.5889 2.57473 20.6017 4.58775C22.6147 6.60057 23.7233 9.27677 23.7233 12.1235C23.7233 14.9702 22.6147 17.6466 20.6017 19.6594Z" fill="#FF8900"/>
<path d="M17.5721 13.2065C17.0144 12.6488 16.1069 12.6488 15.5492 13.2065L14.9392 13.8164C13.4246 12.9911 12.1989 11.7655 11.3734 10.2508L11.9834 9.64088C12.5413 9.08317 12.5413 8.17565 11.9834 7.61794L10.3396 5.97419C9.78193 5.41648 8.87441 5.41648 8.3167 5.97419L7.00178 7.28912C6.24856 8.04233 6.21099 9.33723 6.89592 10.9354C7.49063 12.323 8.57896 13.8481 9.96045 15.2296C11.3419 16.6111 12.8671 17.6994 14.2547 18.2941C15.014 18.6195 15.7046 18.7818 16.3014 18.7818C16.9608 18.7818 17.5055 18.5837 17.9009 18.1883L19.2159 16.8732V16.8734C19.4861 16.6031 19.6349 16.2439 19.6349 15.8619C19.6349 15.4797 19.4861 15.1205 19.2159 14.8504L17.5721 13.2065ZM16.8641 17.1514C16.6491 17.3664 15.9881 17.4417 14.8324 16.9466C13.6121 16.4236 12.25 15.4455 10.9973 14.1928C9.74454 12.94 8.76665 11.5782 8.24365 10.3578C7.74831 9.20219 7.82365 8.54091 8.03861 8.32595L9.32836 7.0362L10.9214 8.62941L10.1579 9.39311C9.81264 9.73834 9.72928 10.2619 9.95073 10.696C10.9546 12.6644 12.5256 14.2355 14.494 15.2393C14.9283 15.4608 15.4519 15.3776 15.7971 15.0322L16.5606 14.2687L18.1539 15.8619L16.8641 17.1514Z" fill="#FF8900"/>
</svg>
