<svg width="149" height="48" viewBox="0 0 149 48" fill="none" xmlns="http://www.w3.org/2000/svg">
<path fill-rule="evenodd" clip-rule="evenodd" d="M77.0523 15.3352C76.9833 22.0057 83.0192 25.7536 87.572 27.9542C92.2627 30.2235 93.8493 31.702 93.8148 33.7307C93.7803 36.8596 90.0898 38.2006 86.6063 38.2693C80.5704 38.3725 77.0523 36.6533 74.2586 35.3467L72.0856 45.5244C74.8794 46.7966 80.0875 47.9312 85.4681 48C98.1262 48 106.369 41.7765 106.438 32.1146C106.473 19.8739 89.4345 19.1863 89.5725 13.7192C89.6069 12.0688 91.1935 10.2808 94.6771 9.83381C96.4016 9.59313 101.161 9.42121 106.542 11.8969L108.646 2.06304C105.749 0.997135 102.024 0 97.3674 0C85.5025 0 77.1213 6.32665 77.0523 15.3352ZM128.995 0.859599C126.684 0.859599 124.753 2.20058 123.856 4.26361L105.783 47.2436H118.407L120.925 40.3324H136.376L137.825 47.2436H149L139.274 0.859599H128.995ZM130.754 13.4097L134.41 30.8424H124.408L130.754 13.4097ZM61.7384 0.859599L51.7706 47.2436H63.8079L73.7757 0.859599H61.7384ZM43.9412 0.859599L31.3866 32.4585L26.3164 5.60459C25.7301 2.61318 23.3847 0.859599 20.7634 0.859599H0.275927L0 2.20058C4.20787 3.09456 8.96759 4.57307 11.8648 6.15473C13.6238 7.11748 14.1412 7.94269 14.7275 10.2464L24.316 47.2779H37.0431L56.5648 0.859599H43.9412Z" fill="#1A1F71"/>
</svg>
