<svg width="70" height="70" viewBox="0 0 70 70" fill="none" xmlns="http://www.w3.org/2000/svg">
<g clip-path="url(#clip0_5009_252)">
<path d="M68.153 46.6667C66.403 52.0139 63.2919 56.875 59.3057 60.6667C55.6113 64.1667 51.2363 66.7917 46.278 68.3473C38.1113 70.7778 30.2363 70.4861 23.3335 68.0556C21.1946 67.2778 19.153 66.3056 17.2085 65.1389C15.2641 63.9723 13.3196 62.6111 11.6669 61.0556C11.3752 60.7639 10.9863 60.4722 10.6946 60.1806C5.63908 55.3195 2.04186 48.9028 0.680749 41.8056C-0.388695 36.4584 -0.19425 30.5278 1.45853 24.5C4.08353 14.875 10.9863 6.90281 20.2224 3.11114C49.5835 -9.13886 77.5835 17.3056 68.153 46.6667Z" fill="#CDD3DD"/>
<path d="M59.3054 31.1111V60.5695C55.611 64.0695 51.236 66.6945 46.2777 68.25C38.111 70.7778 30.236 70.4861 23.3332 68.0556C21.1943 67.2778 19.1527 66.3056 17.2082 65.1389C15.2638 63.9722 13.3193 62.6111 11.6666 61.0556C11.3749 60.7639 10.986 60.4722 10.6943 60.1806V31.1111C10.6943 29.4583 11.9582 28.1945 13.611 28.1945H56.3888C58.0416 28.1945 59.3054 29.4583 59.3054 31.1111Z" fill="#4B4D74"/>
<path d="M59.3057 31.1111V60.5695C55.6113 64.0695 51.2363 66.6945 46.2779 68.25C38.1113 70.7778 30.2363 70.4861 23.3335 68.0556V31.1111C23.3335 29.4583 24.5974 28.1945 26.2502 28.1945H56.389C58.0418 28.1945 59.3057 29.4583 59.3057 31.1111Z" fill="#636595"/>
<path d="M53.4723 18.4722V28.1944H46.6667V18.4722C46.6667 15.2639 45.4028 12.3472 43.2639 10.2083C41.1251 8.06944 38.2084 6.80556 35.0001 6.80556C28.5834 6.80556 23.3334 12.0556 23.3334 18.4722V28.1944H16.5278V18.4722C16.5278 8.26389 24.8889 0 35.0001 0C40.0556 0 44.7223 2.04167 48.0278 5.44444C51.4306 8.75 53.4723 13.4167 53.4723 18.4722Z" fill="#85A1D5"/>
<path d="M34.5139 6.80556H35.0001C28.5834 6.80556 23.3334 12.0556 23.3334 18.4722V28.1944H16.5278V18.4722C16.5278 8.55556 24.4028 0.486111 34.1251 0C33.3473 0.0972222 32.5695 0.486111 32.0834 0.972222C31.5001 1.55556 31.1112 2.43056 31.1112 3.40278C31.1112 5.25 32.6667 6.80556 34.5139 6.80556Z" fill="#6F8AC6"/>
<path d="M17.986 52.5H10.6943V57.3611H17.986C19.3471 57.3611 20.4166 56.2917 20.4166 54.9306C20.4166 53.5694 19.3471 52.5 17.986 52.5Z" fill="#3D4055"/>
<path d="M17.9862 52.5C16.6251 52.5 15.5557 53.5694 15.5557 54.9306C15.5557 56.2917 16.6251 57.3611 17.9862 57.3611C19.3473 57.3611 20.4168 56.2917 20.4168 54.9306C20.4168 53.5694 19.3473 52.5 17.9862 52.5Z" fill="#464A67"/>
<path d="M17.986 43.75H10.6943V48.6111H17.986C19.3471 48.6111 20.4166 47.5417 20.4166 46.1806C20.4166 44.8194 19.3471 43.75 17.986 43.75Z" fill="#3D4055"/>
<path d="M17.9862 43.75C16.6251 43.75 15.5557 44.8194 15.5557 46.1806C15.5557 47.5417 16.6251 48.6111 17.9862 48.6111C19.3473 48.6111 20.4168 47.5417 20.4168 46.1806C20.4168 44.8194 19.3473 43.75 17.9862 43.75Z" fill="#464A67"/>
<path d="M17.986 35H10.6943V39.8611H17.986C19.3471 39.8611 20.4166 38.7917 20.4166 37.4306C20.4166 36.0694 19.3471 35 17.986 35Z" fill="#3D4055"/>
<path d="M17.9862 35C16.6251 35 15.5557 36.0694 15.5557 37.4306C15.5557 38.7917 16.6251 39.8611 17.9862 39.8611C19.3473 39.8611 20.4168 38.7917 20.4168 37.4306C20.4168 36.0694 19.3473 35 17.9862 35Z" fill="#464A67"/>
<path d="M52.0141 52.5H59.3057V57.3611H52.0141C50.6529 57.3611 49.5835 56.2917 49.5835 54.9306C49.5835 53.5694 50.6529 52.5 52.0141 52.5Z" fill="#3D4055"/>
<path d="M52.0141 52.5C53.3752 52.5 54.4446 53.5694 54.4446 54.9306C54.4446 56.2917 53.3752 57.3611 52.0141 57.3611C50.6529 57.3611 49.5835 56.2917 49.5835 54.9306C49.5835 53.5694 50.6529 52.5 52.0141 52.5Z" fill="#464A67"/>
<path d="M52.0141 43.75H59.3057V48.6111H52.0141C50.6529 48.6111 49.5835 47.5417 49.5835 46.1806C49.5835 44.8194 50.6529 43.75 52.0141 43.75Z" fill="#3D4055"/>
<path d="M52.0141 43.75C53.3752 43.75 54.4446 44.8194 54.4446 46.1806C54.4446 47.5417 53.3752 48.6111 52.0141 48.6111C50.6529 48.6111 49.5835 47.5417 49.5835 46.1806C49.5835 44.8194 50.6529 43.75 52.0141 43.75Z" fill="#464A67"/>
<path d="M52.0141 35H59.3057V39.8611H52.0141C50.6529 39.8611 49.5835 38.7917 49.5835 37.4306C49.5835 36.0694 50.6529 35 52.0141 35Z" fill="#3D4055"/>
<path d="M52.0141 35C53.3752 35 54.4446 36.0694 54.4446 37.4306C54.4446 38.7917 53.3752 39.8611 52.0141 39.8611C50.6529 39.8611 49.5835 38.7917 49.5835 37.4306C49.5835 36.0694 50.6529 35 52.0141 35Z" fill="#464A67"/>
</g>
<defs>
<clipPath id="clip0_5009_252">
<rect width="70" height="70" fill="white"/>
</clipPath>
</defs>
</svg>
