<svg width="70" height="70" viewBox="0 0 70 70" fill="none" xmlns="http://www.w3.org/2000/svg">
<g clip-path="url(#clip0_5009_238)">
<path d="M68.153 46.6667C67.1807 49.5833 65.8196 52.3056 64.1669 54.8333C63.2919 56.0972 62.3196 57.3611 61.2502 58.5278C59.3058 60.7639 56.9724 62.7083 54.4446 64.3611C52.8891 65.4305 51.1391 66.3056 49.3891 67.0833C48.4169 67.5694 47.3474 67.8611 46.278 68.25C42.3891 69.4167 38.6946 70 35.0002 70H34.8057C29.8474 70 25.1807 68.9306 21.0002 67.0833C19.7363 66.5 18.3752 65.8194 17.2085 65.1389C15.2641 63.9722 13.3196 62.6111 11.6669 61.0556C10.5974 60.1806 9.62519 59.2083 8.75019 58.1389C7.68075 56.9722 6.70853 55.7083 5.83353 54.3472C3.30575 50.5556 1.55575 46.375 0.68075 41.8056C-0.388695 36.4583 -0.19425 30.5278 1.45853 24.5C2.43075 21.0972 3.88908 17.7917 5.83353 14.875C6.70853 13.5139 7.68075 12.25 8.75019 11.0833C11.8613 7.58333 15.7502 4.86111 20.2224 3.01389C20.3196 3.01389 20.4169 2.91667 20.5141 2.91667C22.9446 1.94444 25.3752 1.16667 27.8057 0.680556C30.2363 0.194444 32.6669 0 35.0002 0C39.9585 0 44.7224 1.06944 49.0002 2.91667C53.7641 4.95833 57.8474 8.06944 61.2502 11.8611C62.3196 13.0278 63.2919 14.2917 64.1669 15.6528C69.8057 24.1111 71.8474 35.1944 68.153 46.6667Z" fill="#CDD3DD"/>
<path d="M59.3057 0H10.6946C7.97238 0 5.8335 2.13889 5.8335 4.86111V54.3472C6.7085 55.7083 7.68072 56.9722 8.75016 58.1389C9.62516 59.2083 10.5974 60.1806 11.6668 61.0556C13.4168 62.6111 15.2641 63.9722 17.2085 65.1389C18.4724 65.8194 19.7363 66.5 21.0002 67.0833C25.1807 68.9306 29.9446 70 34.8057 70H35.0002C38.6946 70 42.389 69.4167 46.2779 68.25C47.3474 67.9583 48.4168 67.5694 49.389 67.0833C51.139 66.3056 52.7918 65.4305 54.4446 64.3611C56.9724 62.7083 59.3057 60.7639 61.2502 58.5278C62.3196 57.3611 63.2918 56.0972 64.1668 54.8333V4.86111C64.1668 2.13889 62.0279 0 59.3057 0ZM53.2779 2.91667H51.5279V1.94444C51.5279 1.45833 51.3335 1.06944 51.0418 0.680556L53.2779 2.91667Z" fill="url(#paint0_linear_5009_238)"/>
<path d="M64.1667 6.99999V54.8333C63.2917 56.0972 62.3194 57.3611 61.25 58.5278C59.3056 60.7639 56.9722 62.7083 54.4444 64.3611C52.8889 65.4305 51.1389 66.3055 49.3889 67.0833L43.5556 61.25L32.8611 50.5555L16.625 34.2222L47.9306 2.91665H51.5278V1.94443C51.5278 1.45832 51.3333 1.06943 51.0417 0.680542L53.2778 2.91665H59.3056C59.7917 2.91665 60.1806 3.1111 60.5694 3.40276L60.8611 3.69443L64.1667 6.99999Z" fill="#B0C154"/>
<path d="M61.25 4.86113V58.625C59.3056 60.8611 56.9722 62.8056 54.4444 64.4584C52.8889 65.5278 51.1389 66.4028 49.3889 67.1806H21C19.7361 66.5972 18.375 65.9167 17.2083 65.2361C15.2639 64.0695 13.3194 62.7084 11.6667 61.1528C10.5972 60.2778 9.625 59.3056 8.75 58.2361V4.86113C8.75 3.79169 9.625 2.91669 10.6944 2.91669H59.3056C59.7917 2.91669 60.1806 3.11113 60.5694 3.4028L60.8611 3.69446C61.0556 3.98613 61.25 4.37502 61.25 4.86113Z" fill="url(#paint1_linear_5009_238)"/>
<path d="M61.347 58.5278C61.2498 58.5278 61.2498 58.625 61.347 58.5278C59.3053 60.7639 56.972 62.8056 54.5414 64.3611C53.6664 64.9445 52.7914 65.4306 51.9164 65.9167H38.8887L53.7637 51.0417L53.8609 51.1389L61.347 58.5278Z" fill="url(#paint2_linear_5009_238)"/>
<path d="M51.5276 2.91665V1.94443C51.5276 1.45832 51.3332 1.06943 51.0415 0.680542L53.2776 2.91665H51.5276Z" fill="url(#paint3_linear_5009_238)"/>
<path d="M61.2498 10.8889V50.2639L21.6804 10.5972C21.5832 10.5972 21.5832 10.5 21.4859 10.4028C20.9026 9.72222 20.5137 8.94444 20.4165 8.06944L22.3609 6.125L22.6526 5.83333L28.4859 0H49.5832C50.0693 0 50.4582 0.194444 50.8471 0.486111L51.1387 0.777778C51.3332 1.06944 51.5276 1.45833 51.5276 1.94444V2.91667H53.2776L61.2498 10.8889Z" fill="url(#paint4_linear_5009_238)"/>
<path d="M49.5832 0V7.77778C49.5832 9.91667 47.8332 11.6667 45.6943 11.6667H24.3054C23.2359 11.6667 22.3609 11.2778 21.6804 10.5972C21.5832 10.5972 21.5832 10.5 21.4859 10.4028C20.9026 9.72222 20.5137 8.94445 20.4165 8.06945V0H22.3609V7.77778C22.3609 8.84722 23.2359 9.72222 24.3054 9.72222H45.6943C46.7637 9.72222 47.6387 8.84722 47.6387 7.77778V0H49.5832Z" fill="#ECCC61"/>
<path d="M51.5277 1.94444V3.88889C51.5277 4.95833 50.6527 5.83333 49.5833 5.83333H20.4166C19.3472 5.83333 18.4722 4.95833 18.4722 3.88889V1.94444C18.4722 0.875 19.3472 0 20.4166 0H49.5833C50.0694 0 50.4583 0.194444 50.8472 0.486111L51.1388 0.777778C51.3333 1.06944 51.5277 1.45833 51.5277 1.94444Z" fill="url(#paint5_linear_5009_238)"/>
<path d="M20.4168 25.2778H15.5557C14.9724 25.2778 14.5835 24.8889 14.5835 24.3056V19.4445C14.5835 18.8611 14.9724 18.4722 15.5557 18.4722H20.4168C21.0002 18.4722 21.3891 18.8611 21.3891 19.4445V24.3056C21.3891 24.8889 21.0002 25.2778 20.4168 25.2778ZM52.0141 20.4167H28.6807C27.9029 20.4167 27.2224 21.0972 27.2224 21.875C27.2224 22.6528 27.9029 23.3333 28.6807 23.3333H52.0141C52.7918 23.3333 53.4724 22.6528 53.4724 21.875C53.4724 21.0972 52.7918 20.4167 52.0141 20.4167ZM20.4168 34.0278H15.5557C14.9724 34.0278 14.5835 33.6389 14.5835 33.0556V28.1945C14.5835 27.6111 14.9724 27.2222 15.5557 27.2222H20.4168C21.0002 27.2222 21.3891 27.6111 21.3891 28.1945V33.0556C21.3891 33.6389 21.0002 34.0278 20.4168 34.0278ZM53.9585 29.1667H28.6807C27.9029 29.1667 27.2224 29.8472 27.2224 30.625C27.2224 31.4028 27.9029 32.0833 28.6807 32.0833H53.9585C54.7363 32.0833 55.4168 31.4028 55.4168 30.625C55.4168 29.8472 54.7363 29.1667 53.9585 29.1667ZM20.4168 42.7778H15.5557C14.9724 42.7778 14.5835 42.3889 14.5835 41.8056V36.9445C14.5835 36.3611 14.9724 35.9722 15.5557 35.9722H20.4168C21.0002 35.9722 21.3891 36.3611 21.3891 36.9445V41.8056C21.3891 42.3889 21.0002 42.7778 20.4168 42.7778ZM49.0974 37.9167H28.6807C27.9029 37.9167 27.2224 38.5972 27.2224 39.375C27.2224 40.1528 27.9029 40.8333 28.6807 40.8333H49.0974C49.8752 40.8333 50.5557 40.1528 50.5557 39.375C50.5557 38.5972 49.8752 37.9167 49.0974 37.9167Z" fill="#464866"/>
<path d="M17.5 21.3889L19.4444 23.3333L24.3056 18.4722" stroke="url(#paint6_linear_5009_238)" stroke-width="3" stroke-miterlimit="10" stroke-linecap="round" stroke-linejoin="round"/>
<path d="M17.5 30.1389L19.4444 32.0833L24.3056 27.2222" stroke="url(#paint7_linear_5009_238)" stroke-width="3" stroke-miterlimit="10" stroke-linecap="round" stroke-linejoin="round"/>
<path d="M54.4446 52.5V64.4583C52.8891 65.5278 51.1391 66.4028 49.3891 67.1805H21.0002C19.7363 66.5972 18.3752 65.9167 17.2085 65.2361C15.2641 64.0694 13.3196 62.7083 11.6668 61.1528C10.5974 60.2778 9.62516 59.3055 8.75016 58.2361C7.68072 57.0694 6.7085 55.8055 5.8335 54.4444V52.5C5.8335 51.4305 6.7085 50.5555 7.77794 50.5555H52.5002C52.9863 50.5555 53.4724 50.75 53.7641 51.0417C53.7641 51.0417 53.8613 51.0417 53.8613 51.1389C54.2502 51.5278 54.4446 52.0139 54.4446 52.5Z" fill="url(#paint8_linear_5009_238)"/>
</g>
<defs>
<linearGradient id="paint0_linear_5009_238" x1="7.2963" y1="1.38639" x2="62.9145" y2="57.0046" gradientUnits="userSpaceOnUse">
<stop stop-color="#DC8E45"/>
<stop offset="0.3595" stop-color="#D67253"/>
<stop offset="0.7915" stop-color="#D15961"/>
<stop offset="1" stop-color="#D04F66"/>
</linearGradient>
<linearGradient id="paint1_linear_5009_238" x1="8.32796" y1="4.48177" x2="61.8825" y2="58.0363" gradientUnits="userSpaceOnUse">
<stop stop-color="white"/>
<stop offset="0.4397" stop-color="#F9FAFD"/>
<stop offset="0.8616" stop-color="#EBEEF8"/>
<stop offset="1" stop-color="#E6E9F6"/>
</linearGradient>
<linearGradient id="paint2_linear_5009_238" x1="46.3463" y1="58.4889" x2="53.888" y2="66.0306" gradientUnits="userSpaceOnUse">
<stop stop-color="#DCDEE5" stop-opacity="0.5"/>
<stop offset="1" stop-color="#E6E9F6" stop-opacity="0.6"/>
</linearGradient>
<linearGradient id="paint3_linear_5009_238" x1="50.641" y1="1.14964" x2="52.848" y2="3.35658" gradientUnits="userSpaceOnUse">
<stop stop-color="#A64E45"/>
<stop offset="0.0798442" stop-color="#A24F49"/>
<stop offset="0.5316" stop-color="#885364"/>
<stop offset="0.8483" stop-color="#7A5376"/>
<stop offset="1" stop-color="#75537D"/>
</linearGradient>
<linearGradient id="paint4_linear_5009_238" x1="40.8436" y1="50.225" x2="40.8435" y2="-2.75666e-05" gradientUnits="userSpaceOnUse">
<stop stop-color="white" stop-opacity="0"/>
<stop offset="1" stop-color="#DCDEE5"/>
</linearGradient>
<linearGradient id="paint5_linear_5009_238" x1="35.0005" y1="5.83333" x2="35.0005" y2="0" gradientUnits="userSpaceOnUse">
<stop stop-color="#1F2234"/>
<stop offset="0.2048" stop-color="#2C2F43"/>
<stop offset="0.4239" stop-color="#383B52"/>
<stop offset="0.6346" stop-color="#40435D"/>
<stop offset="0.8309" stop-color="#454764"/>
<stop offset="0.9988" stop-color="#464866"/>
</linearGradient>
<linearGradient id="paint6_linear_5009_238" x1="16.0423" y1="20.9028" x2="25.7645" y2="20.9028" gradientUnits="userSpaceOnUse">
<stop stop-color="#A3CFB9"/>
<stop offset="1" stop-color="#79C0C0"/>
</linearGradient>
<linearGradient id="paint7_linear_5009_238" x1="16.0423" y1="29.6528" x2="25.7645" y2="29.6528" gradientUnits="userSpaceOnUse">
<stop stop-color="#A3CFB9"/>
<stop offset="1" stop-color="#79C0C0"/>
</linearGradient>
<linearGradient id="paint8_linear_5009_238" x1="30.1396" y1="50.5555" x2="30.1396" y2="67.0833" gradientUnits="userSpaceOnUse">
<stop stop-color="white"/>
<stop offset="0.3152" stop-color="#FAFAFD"/>
<stop offset="0.5463" stop-color="#EEEFF8"/>
<stop offset="0.7506" stop-color="#DDE0F2"/>
<stop offset="0.9382" stop-color="#C6CCE8"/>
<stop offset="1" stop-color="#BEC4E5"/>
</linearGradient>
<clipPath id="clip0_5009_238">
<rect width="70" height="70" fill="white"/>
</clipPath>
</defs>
</svg>
