<svg width="70" height="70" viewBox="0 0 70 70" fill="none" xmlns="http://www.w3.org/2000/svg">
<g clip-path="url(#clip0_5033_1725)">
<path d="M68.1525 46.6667C67.1803 49.5833 65.8192 52.3056 64.1664 54.8333C63.8747 55.3194 63.4858 55.8056 63.1941 56.1944C62.6108 56.9722 61.9303 57.75 61.2497 58.5278C60.083 59.7917 58.8191 61.0556 57.458 62.125C56.4858 62.9028 55.5136 63.6806 54.4441 64.3611C52.8886 65.4305 51.1386 66.3056 49.3886 67.0833C48.4164 67.5694 47.3469 67.8611 46.2775 68.25C42.3886 69.4167 38.6942 70 34.9997 70H34.8053C29.8469 70 25.1803 68.9306 20.9997 67.0833C19.7358 66.5 18.3747 65.8194 17.208 65.1389C15.7497 64.2639 14.2914 63.2917 13.0275 62.2222C12.5414 61.8333 12.1525 61.4444 11.6664 61.0556C10.5969 60.1806 9.62471 59.2083 8.74971 58.1389C7.68026 56.9722 6.70804 55.7083 5.83304 54.3472C3.30526 50.5556 1.55526 46.375 0.680261 41.8056C-0.389183 36.4583 -0.194739 30.5278 1.45804 24.5C2.43026 21.0972 3.88859 17.7917 5.83304 14.875C6.70804 13.5139 7.68026 12.25 8.74971 11.0833C11.8608 7.58333 15.7497 4.86111 20.2219 3.01389C20.3191 3.01389 20.4164 2.91667 20.5136 2.91667C22.9441 1.94444 25.3747 1.16667 27.8053 0.680556C30.2358 0.194444 32.6664 0 34.9997 0C39.958 0 44.7219 1.06944 48.9997 2.91667C53.7636 4.95833 57.8469 8.06944 61.2497 11.8611C62.3191 13.0278 63.2914 14.2917 64.1664 15.6528C69.8053 24.1111 71.8469 35.1944 68.1525 46.6667Z" fill="#CDD3DD"/>
<path d="M58.333 31.1111H10.6941C7.9719 31.1111 5.83301 28.9722 5.83301 26.25V13.6111C5.83301 10.8889 7.9719 8.75 10.6941 8.75H58.333C61.0552 8.75 63.1941 10.8889 63.1941 13.6111V26.25C63.1941 28.9722 61.0552 31.1111 58.333 31.1111Z" fill="url(#paint0_linear_5033_1725)"/>
<path d="M55.8059 27.3194H44.2364C43.167 27.3194 42.292 26.4444 42.292 25.3749V14.5832C42.292 13.5138 43.167 12.6388 44.2364 12.6388H55.8059C56.8753 12.6388 57.7503 13.5138 57.7503 14.5832V25.3749C57.7503 26.4444 56.8753 27.3194 55.8059 27.3194ZM34.5142 12.6388H13.1253C12.3475 12.6388 11.667 13.3193 11.667 14.0971C11.667 14.8749 12.3475 15.5555 13.1253 15.5555H34.5142C35.292 15.5555 35.9725 14.8749 35.9725 14.0971C35.9725 13.3193 35.292 12.6388 34.5142 12.6388ZM27.7087 18.4721H13.1253C12.3475 18.4721 11.667 19.1527 11.667 19.9305C11.667 20.7082 12.3475 21.3888 13.1253 21.3888H27.7087C28.4864 21.3888 29.167 20.7082 29.167 19.9305C29.167 19.1527 28.4864 18.4721 27.7087 18.4721ZM30.6253 24.3055H13.1253C12.3475 24.3055 11.667 24.986 11.667 25.7638C11.667 26.5416 12.3475 27.2221 13.1253 27.2221H30.6253C31.4031 27.2221 32.0837 26.5416 32.0837 25.7638C32.0837 24.986 31.4031 24.3055 30.6253 24.3055Z" fill="white"/>
<path d="M52.5 46.6667H4.86111C2.13889 46.6667 0 44.5278 0 41.8055V29.1667C0 26.4444 2.13889 24.3055 4.86111 24.3055H52.5C55.2222 24.3055 57.3611 26.4444 57.3611 29.1667V41.8055C57.3611 44.5278 55.2222 46.6667 52.5 46.6667Z" fill="url(#paint1_linear_5033_1725)"/>
<path d="M49.9719 42.875H38.4025C37.333 42.875 36.458 42 36.458 40.9306V30.1389C36.458 29.0695 37.333 28.1945 38.4025 28.1945H49.9719C51.0413 28.1945 51.9163 29.0695 51.9163 30.1389V40.9306C51.9163 42 51.0413 42.875 49.9719 42.875Z" fill="white"/>
<path d="M41.8057 35L43.7501 36.9445L48.6112 32.0834" stroke="url(#paint2_linear_5033_1725)" stroke-width="3" stroke-miterlimit="10" stroke-linecap="round" stroke-linejoin="round"/>
<path d="M22.8469 28.1945H7.29134C6.51356 28.1945 5.83301 28.875 5.83301 29.6528C5.83301 30.4306 6.51356 31.1111 7.29134 31.1111H22.8469C23.6247 31.1111 24.3052 30.4306 24.3052 29.6528C24.3052 28.875 23.6247 28.1945 22.8469 28.1945ZM28.6802 34.0278H7.29134C6.51356 34.0278 5.83301 34.7083 5.83301 35.4861C5.83301 36.2639 6.51356 36.9445 7.29134 36.9445H28.6802C29.458 36.9445 30.1386 36.2639 30.1386 35.4861C30.1386 34.7083 29.458 34.0278 28.6802 34.0278ZM24.7913 39.8611H7.29134C6.51356 39.8611 5.83301 40.5417 5.83301 41.3195C5.83301 42.0972 6.51356 42.7778 7.29134 42.7778H24.7913C25.5691 42.7778 26.2497 42.0972 26.2497 41.3195C26.2497 40.5417 25.5691 39.8611 24.7913 39.8611Z" fill="white"/>
<path d="M63.1941 44.7223V56.1945C62.6108 56.9723 61.9302 57.7501 61.2497 58.5279C60.083 59.7918 58.8191 61.0557 57.458 62.1251H13.0275C12.5413 61.7362 12.1525 61.3473 11.6663 60.9584C10.5969 60.0834 9.62467 59.1112 8.74967 58.0418C7.68023 56.8751 6.70801 55.6112 5.83301 54.2501V44.7223C5.83301 42.0001 7.9719 39.8612 10.6941 39.8612H58.333C61.0552 39.8612 63.1941 42.0001 63.1941 44.7223Z" fill="#B0C154"/>
<path d="M55.8059 58.4306H44.2364C43.167 58.4306 42.292 57.5556 42.292 56.4862V45.6945C42.292 44.6251 43.167 43.7501 44.2364 43.7501H55.8059C56.8753 43.7501 57.7503 44.6251 57.7503 45.6945V56.4862C57.7503 57.5556 56.8753 58.4306 55.8059 58.4306ZM32.5698 43.7501H13.1253C12.3475 43.7501 11.667 44.4307 11.667 45.2084C11.667 45.9862 12.3475 46.6668 13.1253 46.6668H32.5698C33.3475 46.6668 34.0281 45.9862 34.0281 45.2084C34.0281 44.4307 33.3475 43.7501 32.5698 43.7501ZM34.5142 49.5834H13.1253C12.3475 49.5834 11.667 50.264 11.667 51.0418C11.667 51.8195 12.3475 52.5001 13.1253 52.5001H34.5142C35.292 52.5001 35.9725 51.8195 35.9725 51.0418C35.9725 50.264 35.292 49.5834 34.5142 49.5834ZM26.7364 55.4168H13.1253C12.3475 55.4168 11.667 56.0973 11.667 56.8751C11.667 57.6529 12.3475 58.3334 13.1253 58.3334H26.7364C27.5142 58.3334 28.1948 57.6529 28.1948 56.8751C28.1948 56.0973 27.5142 55.4168 26.7364 55.4168ZM59.2087 4.27787C63.0976 8.16676 63.0976 14.4862 59.2087 18.4723C55.3198 22.3612 49.0003 22.3612 45.0142 18.4723C41.1253 14.5834 41.1253 8.26398 45.0142 4.27787C49.0003 0.388984 55.3198 0.388984 59.2087 4.27787Z" fill="white"/>
<path d="M69.6106 26.9306L61.055 18.375C64.555 13.9028 64.2634 7.38889 60.18 3.30556C58.0411 1.16667 55.2217 0 52.2078 0C49.1939 0 46.2772 1.16667 44.1383 3.30556C39.6661 7.77778 39.6661 14.9722 44.1383 19.3472C46.2772 21.4861 49.0967 22.6528 52.2078 22.6528C54.8328 22.6528 57.2634 21.7778 59.2078 20.2222L67.7634 28.7778C68.055 29.0694 68.3467 29.1667 68.7356 29.1667C69.1245 29.1667 69.4161 29.0694 69.7078 28.7778C70.0967 28.2917 70.0967 27.4167 69.6106 26.9306ZM46.0828 17.5C42.68 14.0972 42.68 8.65278 46.0828 5.25C47.7356 3.59722 49.8745 2.72222 52.2078 2.72222C54.5411 2.72222 56.68 3.59722 58.3328 5.25C61.7356 8.65278 61.7356 14.0972 58.3328 17.5C56.68 19.1528 54.5411 20.0278 52.2078 20.0278C49.8745 20.0278 47.6383 19.1528 46.0828 17.5Z" fill="#3F4561"/>
<path d="M56.9727 6.51379C59.5977 9.13879 59.5977 13.5138 56.9727 16.1388C54.3477 18.7638 49.9727 18.7638 47.3477 16.1388C44.7227 13.5138 44.7227 9.13879 47.3477 6.51379C49.9727 3.88879 54.3477 3.88879 56.9727 6.51379Z" fill="#91C6F0"/>
<path d="M50.9449 16.2362C48.3199 13.6112 48.3199 9.23621 50.9449 6.61121C51.8199 5.73621 52.8893 5.15287 53.9588 4.86121C51.7227 4.27787 49.0977 4.86121 47.3477 6.61121C44.7227 9.23621 44.7227 13.6112 47.3477 16.2362C49.0977 17.9862 51.6254 18.5695 53.9588 17.9862C52.7921 17.6945 51.8199 17.1112 50.9449 16.2362Z" fill="#79ADE1"/>
<path d="M46.667 51.5279L48.6114 53.4723L53.4725 48.6112" stroke="url(#paint3_linear_5033_1725)" stroke-width="3" stroke-miterlimit="10" stroke-linecap="round" stroke-linejoin="round"/>
</g>
<defs>
<linearGradient id="paint0_linear_5033_1725" x1="34.5136" y1="35.3936" x2="34.5136" y2="5.0189" gradientUnits="userSpaceOnUse">
<stop/>
<stop offset="0.0203518" stop-color="#0B1109"/>
<stop offset="0.0714211" stop-color="#23351D"/>
<stop offset="0.1289" stop-color="#38552F"/>
<stop offset="0.1924" stop-color="#4A713E"/>
<stop offset="0.2641" stop-color="#58874A"/>
<stop offset="0.3478" stop-color="#649854"/>
<stop offset="0.4514" stop-color="#6BA35A"/>
<stop offset="0.5967" stop-color="#70AA5E"/>
<stop offset="1" stop-color="#71AC5F"/>
</linearGradient>
<linearGradient id="paint1_linear_5033_1725" x1="28.6806" y1="49.5047" x2="28.6806" y2="18.5295" gradientUnits="userSpaceOnUse">
<stop/>
<stop offset="0.0192982" stop-color="#070A10"/>
<stop offset="0.0703993" stop-color="#172234"/>
<stop offset="0.1279" stop-color="#263754"/>
<stop offset="0.1915" stop-color="#324970"/>
<stop offset="0.2632" stop-color="#3B5886"/>
<stop offset="0.3471" stop-color="#436397"/>
<stop offset="0.4508" stop-color="#486AA2"/>
<stop offset="0.5962" stop-color="#4B6FA9"/>
<stop offset="1" stop-color="#4C70AB"/>
</linearGradient>
<linearGradient id="paint2_linear_5033_1725" x1="40.3473" y1="34.5139" x2="50.0696" y2="34.5139" gradientUnits="userSpaceOnUse">
<stop stop-color="#A3CFB9"/>
<stop offset="1" stop-color="#79C0C0"/>
</linearGradient>
<linearGradient id="paint3_linear_5033_1725" x1="45.2087" y1="51.0418" x2="54.9309" y2="51.0418" gradientUnits="userSpaceOnUse">
<stop stop-color="#A3CFB9"/>
<stop offset="1" stop-color="#79C0C0"/>
</linearGradient>
<clipPath id="clip0_5033_1725">
<rect width="70" height="70" fill="white"/>
</clipPath>
</defs>
</svg>
