<svg width="15" height="15" viewBox="0 0 15 15" fill="none" xmlns="http://www.w3.org/2000/svg">
<g clip-path="url(#clip0_7328_17)">
<path d="M14.0031 2.52778C13.3593 1.88389 12.5032 1.52931 11.5926 1.52931C10.6821 1.52931 9.82602 1.88389 9.18213 2.52778L3.80834 7.90153C3.01086 8.699 3.01086 9.9966 3.80838 10.7942C4.60591 11.5916 5.90355 11.5916 6.70102 10.7941L10.2396 7.25555C10.5058 6.98928 10.5058 6.55761 10.2396 6.29135C9.97333 6.02508 9.54162 6.02508 9.27536 6.29135L5.73683 9.82988C5.47102 10.0958 5.03844 10.0957 4.77258 9.82992C4.50673 9.56407 4.50673 9.13149 4.77254 8.86568L10.1463 3.49202C10.5327 3.10572 11.0463 2.89295 11.5926 2.89295C12.139 2.89295 12.6526 3.10572 13.0389 3.49202C13.8364 4.28955 13.8364 5.58714 13.039 6.38466L7.18315 12.2404C5.85391 13.5695 3.69121 13.5695 2.36211 12.2404C1.71822 11.5966 1.3636 10.7405 1.3636 9.82992C1.3636 8.91936 1.71822 8.06325 2.36211 7.41936L8.21784 1.56354C8.48411 1.29727 8.48411 0.865604 8.21784 0.59934C7.95162 0.33312 7.51991 0.333075 7.25364 0.59934L1.39791 6.45516C0.496439 7.35659 0 8.5551 0 9.82992C0 11.1047 0.496439 12.3033 1.39791 13.2046C2.32843 14.1352 3.5503 14.6004 4.77258 14.6002C5.99459 14.6001 7.21701 14.1349 8.14734 13.2046L14.0032 7.34882C15.3323 6.01963 15.3323 3.85697 14.0031 2.52778Z" fill="#FF8900"/>
</g>
<defs>
<clipPath id="clip0_7328_17">
<rect width="15" height="15" fill="white"/>
</clipPath>
</defs>
</svg>
