<svg width="14" height="14" viewBox="0 0 14 14" fill="none" xmlns="http://www.w3.org/2000/svg">
<path d="M11.954 1.58472H11.5446V11.6417C11.5446 12.3099 11.0008 12.8537 10.3326 12.8537H6.18496H2.88672V13.2265C2.88672 13.6534 3.23321 13.9999 3.66011 13.9999H7.80631H11.9525C12.3794 13.9999 12.7259 13.6534 12.7259 13.2265V2.35811C12.7259 1.93121 12.3809 1.58472 11.954 1.58472Z" fill="#FF8900"/>
<path d="M6.18766 12.4152H10.3339C10.7608 12.4152 11.1073 12.0687 11.1073 11.6418V1.5848V0.773392C11.1073 0.346491 10.7608 0 10.3339 0H6.18766H4.80901V0.255848C4.81191 0.282164 4.81339 0.309942 4.81339 0.337719V2.02339V2.45614C4.81339 3.05702 4.32509 3.54532 3.72421 3.54532H3.29146H1.60579C1.58386 3.54532 1.56047 3.54386 1.53854 3.5424H1.26953V11.6418C1.26953 12.0687 1.61602 12.4152 2.04292 12.4152H2.89088H6.18766ZM6.34409 9.78655H3.64088C3.43912 9.78655 3.27538 9.62279 3.27538 9.42105C3.27538 9.21928 3.43912 9.05556 3.64088 9.05556H6.34555C6.54731 9.05556 6.71105 9.21928 6.71105 9.42105C6.71105 9.62279 6.54585 9.78655 6.34409 9.78655ZM9.04877 7.92107H3.64088C3.43912 7.92107 3.27538 7.75731 3.27538 7.55557C3.27538 7.3538 3.43912 7.19007 3.64088 7.19007H9.04877C9.25052 7.19007 9.41427 7.3538 9.41427 7.55557C9.41427 7.75731 9.25052 7.92107 9.04877 7.92107ZM3.64088 5.20906H9.04877C9.25052 5.20906 9.41427 5.37281 9.41427 5.57456C9.41427 5.77632 9.25052 5.94006 9.04877 5.94006H3.64088C3.43912 5.94006 3.27538 5.77632 3.27538 5.57456C3.27538 5.37281 3.43912 5.20906 3.64088 5.20906Z" fill="#FF8900"/>
<path d="M1.60416 3.10663H3.72256C3.72403 3.10663 3.72695 3.10663 3.72841 3.10663C4.08221 3.1037 4.36876 2.81715 4.37168 2.46335C4.37168 2.46189 4.37168 2.45896 4.37168 2.4575V0.33762C4.37168 0.141714 4.21087 0.0115967 4.04421 0.0115967C3.96381 0.0115967 3.8834 0.0408364 3.81614 0.108088L1.37316 2.55107C1.16849 2.75575 1.31322 3.10663 1.60416 3.10663Z" fill="#FF8900"/>
</svg>
