<svg width="22" height="10" viewBox="0 0 22 10" fill="none" xmlns="http://www.w3.org/2000/svg">
<path d="M21 5.6C21.3314 5.6 21.6 5.33137 21.6 5C21.6 4.66863 21.3314 4.4 21 4.4L21 5.6ZM0.575735 4.57573C0.341421 4.81005 0.341421 5.18995 0.575735 5.42426L4.39411 9.24264C4.62843 9.47695 5.00833 9.47695 5.24264 9.24264C5.47696 9.00832 5.47696 8.62843 5.24264 8.39411L1.84853 5L5.24264 1.60589C5.47696 1.37157 5.47696 0.991673 5.24264 0.757358C5.00833 0.523043 4.62843 0.523043 4.39411 0.757358L0.575735 4.57573ZM21 4.4L1 4.4L1 5.6L21 5.6L21 4.4Z" fill="white"/>
</svg>
