<svg width="20" height="20" viewBox="0 0 20 20" fill="none" xmlns="http://www.w3.org/2000/svg">
<path fill-rule="evenodd" clip-rule="evenodd" d="M13.2108 13.1337L13.0873 13.3276L13.3146 13.3625C14.3195 13.517 15.6659 13.8228 16.7569 14.3381C17.8597 14.8591 18.6375 15.562 18.6375 16.4844C18.6375 17.0108 18.3805 17.4833 17.9081 17.9025C17.4338 18.3233 16.7506 18.6821 15.9255 18.9727C14.2763 19.5537 12.0969 19.85 9.99844 19.85C7.75386 19.85 5.64189 19.5346 4.05131 18.9665C2.91221 18.5597 2.23925 18.1008 1.85197 17.6656C1.46745 17.2336 1.35938 16.8194 1.35938 16.4844C1.35938 15.5622 2.13806 14.8591 3.24151 14.338C4.33297 13.8226 5.67934 13.5167 6.68224 13.3626L6.90955 13.3277L4.8982 10.1711L4.89307 10.164C4.11151 9.0822 3.70312 7.79304 3.70312 6.4844C3.70312 3.005 6.53375 0.150024 9.99844 0.150024C13.4745 0.150024 16.2938 3.01052 16.2938 6.4844C16.2938 7.79405 15.8936 9.05039 15.1367 10.1179C15.13 10.1275 15.1269 10.1315 15.1242 10.1349L15.1233 10.1362C15.1082 10.1557 15.0948 10.1766 14.4417 11.2019C14.1637 11.6382 13.7699 12.2564 13.2108 13.1337ZM4.575 6.4844C4.575 7.60686 4.9239 8.72353 5.60876 9.66575L5.62398 9.68807L9.99844 16.5521L10.1249 16.3536C11.2555 14.5797 12.0868 13.2749 12.6987 12.3145L12.7059 12.3033C13.3209 11.338 13.7134 10.722 13.9649 10.3277C14.4076 9.63358 14.4124 9.62803 14.4228 9.61626L14.4235 9.61545C14.4235 9.61545 14.4263 9.61228 14.4287 9.6091L14.4317 9.60495C15.0794 8.68766 15.4219 7.60856 15.4219 6.4844C15.4219 3.47327 12.9901 1.0219 9.99844 1.0219C7.00063 1.0219 4.575 3.4723 4.575 6.4844ZM9.63079 17.5976L7.42743 14.1402L7.33336 14.1519C5.60942 14.3663 4.34898 14.7496 3.5148 15.1691C3.09807 15.3786 2.78262 15.5997 2.56911 15.8177C2.35853 16.0327 2.23125 16.2615 2.23125 16.4844C2.23125 16.8061 2.47051 17.1152 2.83315 17.3877C3.20384 17.6663 3.73946 17.9347 4.4121 18.1688C5.75895 18.6376 7.68037 18.9781 9.99844 18.9781C12.3301 18.9781 14.2516 18.6355 15.5951 18.1656C16.2661 17.9309 16.7992 17.6623 17.1678 17.384C17.5283 17.1118 17.7656 16.8038 17.7656 16.4844C17.7656 16.2615 17.6383 16.0327 17.4278 15.8177C17.2142 15.5997 16.8988 15.3786 16.482 15.1691C15.6478 14.7496 14.3874 14.3663 12.6634 14.1519L12.5693 14.1402L10.366 17.5976C10.286 17.7232 10.1474 17.7992 9.9984 17.7992C9.84944 17.7992 9.71082 17.7232 9.63079 17.5976Z" fill="#FF8900"/>
<path fill-rule="evenodd" clip-rule="evenodd" d="M7.21875 6.4844C7.21875 4.95181 8.46585 3.70471 9.99844 3.70471C11.531 3.70471 12.7781 4.95181 12.7781 6.4844C12.7781 8.01699 11.531 9.26409 9.99844 9.26409C8.46585 9.26409 7.21875 8.01699 7.21875 6.4844ZM8.09063 6.4844C8.09063 7.5365 8.94634 8.39221 9.99844 8.39221C11.0505 8.39221 11.9062 7.5365 11.9062 6.4844C11.9062 5.4323 11.0505 4.57659 9.99844 4.57659C8.94634 4.57659 8.09063 5.4323 8.09063 6.4844Z" fill="#FF8900"/>
</svg>
