<svg width="20" height="20" viewBox="0 0 20 20" fill="none" xmlns="http://www.w3.org/2000/svg">
<path d="M20 7.66627C20 7.65928 19.9963 7.65326 19.996 7.64662C19.9939 7.62353 19.9893 7.60072 19.9823 7.57861C19.9777 7.55888 19.9713 7.53959 19.9633 7.52095C19.9538 7.5033 19.9427 7.48654 19.93 7.47095C19.9168 7.45185 19.9016 7.43419 19.8846 7.41829C19.8793 7.41361 19.877 7.40728 19.8713 7.40294L16.6666 4.91325V2.33285C16.6666 1.78058 16.2189 1.33284 15.6666 1.33284H12.0542L10.6078 0.209808C10.2504 -0.068634 9.74951 -0.068634 9.39212 0.209808L7.94545 1.33284H4.33305C3.78077 1.33284 3.33303 1.78054 3.33303 2.33285V4.91325L0.128635 7.40294C0.122971 7.40728 0.120627 7.41361 0.115315 7.41829C0.0983611 7.43419 0.0831655 7.45185 0.0699622 7.47095C0.0573057 7.48654 0.0461336 7.5033 0.0366413 7.52095C0.0285552 7.53955 0.0221879 7.55884 0.0176566 7.57861C0.0107033 7.60029 0.00613292 7.62263 0.00398445 7.64529C0.00398445 7.65197 0 7.65795 0 7.66494V18.9998C0.00132815 19.1071 0.0201175 19.2135 0.055665 19.3148C-0.0208597 19.4302 -0.0172659 19.581 0.0646105 19.6927C0.146487 19.8043 0.289302 19.8531 0.422351 19.8148C0.590792 19.9352 0.79267 19.9998 0.999705 19.9998H19C19.2079 19.9994 19.4104 19.9337 19.579 19.8121C19.6075 19.8209 19.6369 19.8257 19.6667 19.8265C19.7884 19.8272 19.9007 19.7609 19.9588 19.6539C20.017 19.5469 20.0115 19.4166 19.9447 19.3148C19.9801 19.2135 19.9988 19.1071 20 18.9998V7.66627H20ZM9.79978 0.735833C9.91619 0.643332 10.081 0.643332 10.1974 0.735833L10.9664 1.33284H9.03309L9.79978 0.735833ZM1.08232 19.3332L9.79982 12.5617C9.91631 12.4697 10.0807 12.4697 10.1972 12.5617L18.9173 19.3332H1.08232ZM19.3333 18.8125L10.6071 12.0354C10.25 11.7573 9.74963 11.7573 9.39247 12.0354L0.666301 18.8125V8.17393L6.12874 12.4157C6.27429 12.5285 6.48375 12.5021 6.5966 12.3565C6.70945 12.211 6.68297 12.0015 6.53742 11.8886L0.987986 7.57927L3.33303 5.75725V8.33296C3.33303 8.51706 3.48229 8.66628 3.66635 8.66628C3.85046 8.66628 3.99968 8.51702 3.99968 8.33296V2.33285C3.99968 2.14875 4.1489 1.99953 4.33301 1.99953H15.6665C15.8506 1.99953 15.9999 2.14875 15.9999 2.33285V8.33296C15.9999 8.51706 16.1491 8.66628 16.3332 8.66628C16.5173 8.66628 16.6665 8.51702 16.6665 8.33296V5.75725L19.0115 7.57927L13.4522 11.8963C13.3068 12.0093 13.2804 12.2187 13.3934 12.3642C13.5063 12.5096 13.7157 12.536 13.8612 12.423L19.3333 8.17397V18.8125Z" fill="#FF8900"/>
<path d="M6.66536 4.33169H13.3322C13.5163 4.33169 13.6655 4.18247 13.6655 3.99837C13.6655 3.81426 13.5163 3.66504 13.3322 3.66504H6.66536C6.48125 3.66504 6.33203 3.81426 6.33203 3.99837C6.33203 4.18247 6.48125 4.33169 6.66536 4.33169Z" fill="#FF8900"/>
<path d="M13.6655 5.99836C13.6655 5.81426 13.5163 5.66504 13.3322 5.66504H6.66536C6.48125 5.66504 6.33203 5.8143 6.33203 5.99836C6.33203 6.18247 6.48125 6.33169 6.66536 6.33169H13.3322C13.5163 6.33169 13.6655 6.18243 13.6655 5.99836Z" fill="#FF8900"/>
<path d="M13.6667 7.99837C13.6667 7.81426 13.5175 7.66504 13.3334 7.66504H10.3333C10.1492 7.66504 10 7.81426 10 7.99837C10 8.18247 10.1492 8.33169 10.3333 8.33169H13.3334C13.5175 8.33169 13.6667 8.18243 13.6667 7.99837Z" fill="#FF8900"/>
</svg>
