<svg width="30" height="30" viewBox="0 0 30 30" fill="none" xmlns="http://www.w3.org/2000/svg">
<rect width="30" height="30" rx="3" fill="#7360F2"/>
<g clip-path="url(#clip0_13422_2387)">
<path d="M9.57569 10.9875C9.77418 9.76897 10.6288 9.1404 11.7591 9.24516C12.3877 9.30582 14.0143 11.4562 13.8875 12.0517C13.7441 12.7078 12.7296 12.8622 12.713 13.4742C12.6965 14.1249 13.0218 14.8086 13.8764 15.6191C14.4774 16.1925 15.3486 16.959 16.2419 17.0031C16.7216 17.0251 16.5396 16.391 17.2343 16.0106C17.9125 15.6356 20.1897 17.1685 20.3276 17.9459C20.482 18.8006 19.8093 19.8427 18.7231 20.1184C17.4273 20.4437 15.4589 19.1976 13.1652 17.0913C11.0424 15.1339 9.32757 12.4983 9.57569 10.9875Z" fill="white"/>
<path d="M20.0017 15.2443C19.9907 15.2443 19.9797 15.2443 19.9742 15.2443C19.7922 15.2278 19.6544 15.0679 19.6709 14.8859C19.8087 13.331 19.2463 11.8754 18.127 10.894C17.2669 10.1386 16.1476 9.73055 14.9566 9.75812C14.7747 9.7526 14.6203 9.61476 14.6203 9.43281C14.6148 9.25085 14.7636 9.09646 14.9456 9.09646C16.2965 9.07441 17.5812 9.53205 18.5681 10.3977C19.8308 11.506 20.4924 13.2042 20.3381 14.9466C20.316 15.1175 20.1726 15.2443 20.0017 15.2443Z" fill="white"/>
<path d="M18.7002 14.7369C18.6892 14.7369 18.6782 14.7369 18.6727 14.7369C18.4907 14.7203 18.3529 14.5604 18.3694 14.3785C18.4576 13.3805 18.0937 12.4431 17.3769 11.809C16.8256 11.3238 16.1032 11.0647 15.3423 11.0812C15.1604 11.0867 15.006 10.9379 15.006 10.7559C15.0005 10.574 15.1494 10.4196 15.3313 10.4196C16.2576 10.403 17.1398 10.7173 17.818 11.3128C18.6837 12.0737 19.1358 13.2426 19.0311 14.4391C19.02 14.6045 18.8712 14.7369 18.7002 14.7369Z" fill="white"/>
<path d="M17.4043 14.224C17.3933 14.224 17.3822 14.224 17.3767 14.224C17.1948 14.2075 17.0569 14.0476 17.0735 13.8656C17.1121 13.419 16.9522 13.0055 16.6324 12.7243C16.3898 12.5092 16.0644 12.3879 15.7281 12.4045C15.5517 12.4155 15.3917 12.2611 15.3917 12.0791C15.3862 11.8972 15.5351 11.7428 15.7171 11.7428C16.2243 11.7373 16.704 11.9082 17.068 12.228C17.5421 12.6415 17.7847 13.2756 17.7296 13.9263C17.7186 14.0917 17.5752 14.224 17.4043 14.224Z" fill="white"/>
<path d="M15.9881 5.00498C11.9851 4.94433 8.93049 5.28618 7.06132 7.1333C5.62222 8.55034 4.98814 10.7503 4.99916 14.2681C5.01019 19.0762 6.56508 21.7393 10.0277 22.8972V26.9995L13.5069 23.5203C16.0212 23.7574 20.0904 23.6691 22.3235 22.3183C24.4683 21.0225 25.5104 18.6571 25.5104 15.0952C25.5104 7.84458 22.93 5.10974 15.9881 5.00498ZM14.0804 21.7283C13.2643 22.6105 13.9646 21.8937 10.8603 24.998C10.8603 21.5629 10.8603 22.3072 10.8658 21.2596C7.95455 20.3388 6.83526 18.2877 6.82423 14.2626C6.8132 11.2742 7.28187 9.47666 8.34052 8.43455C9.55355 7.23255 11.7591 6.76939 15.9551 6.83004C21.8769 6.91826 23.6799 8.84809 23.6799 15.0952C23.6854 21.0887 20.5536 22.1032 14.0804 21.7283Z" fill="white"/>
</g>
<defs>
<clipPath id="clip0_13422_2387">
<rect width="20.5113" height="22" fill="white" transform="translate(5 5)"/>
</clipPath>
</defs>
</svg>
