<svg width="127" height="50" viewBox="0 0 127 50" fill="none" xmlns="http://www.w3.org/2000/svg">
<g clip-path="url(#clip0_8669_36032)">
<path d="M52.5861 45.2514C52.5861 45.2514 60.5237 32.4022 61.9411 26.3966C63.3585 20.391 63.5002 17.1788 57.9723 16.6201C52.3027 16.0614 45.9243 16.6201 45.9243 16.6201C45.9243 16.6201 54.854 11.0335 66.6185 11.4525C78.5248 11.7318 85.3283 16.6201 85.3283 16.6201C85.3283 16.6201 82.777 17.5977 78.6665 17.8771C74.556 18.2961 72.9969 19.1341 73.2804 23.743C73.5638 28.3519 75.2647 31.5642 75.2647 31.5642C75.2647 31.5642 68.6029 27.2346 64.4924 31.5642C60.3819 35.8938 59.5315 37.8491 57.1219 40.6424C54.854 43.4357 52.5861 45.2514 52.5861 45.2514Z" fill="#136BB5"/>
<path d="M66.193 0C69.0278 0 71.2957 2.23464 71.2957 5.02793C71.2957 7.82123 69.0278 10.0559 66.193 10.0559C63.3582 10.0559 61.0903 7.82123 61.0903 5.02793C61.0903 2.23464 63.4999 0 66.193 0Z" fill="#F8A81B"/>
<path d="M3.11816 32.6816C2.97642 33.5195 3.11816 35.3352 3.54339 36.3128C4.25209 37.9888 5.6695 38.8268 7.51214 38.8268C9.63825 38.8268 11.1974 38.1285 12.1896 37.4302L12.6148 39.9441C11.3391 40.7821 9.21303 41.4804 6.80343 41.4804C2.12598 41.4804 0.141602 37.9888 0.141602 33.7989C0.141602 27.933 4.11035 21.5084 9.77999 21.5084C13.1818 21.5084 15.0244 23.743 15.0244 26.3966C14.7409 31.4246 9.63825 32.8212 3.11816 32.6816ZM9.21303 24.0223C6.37821 24.0223 4.25209 27.095 3.40165 30.1676C8.0791 30.1676 11.9061 29.4693 11.9061 26.5363C11.9061 24.8603 10.7722 24.0223 9.21303 24.0223ZM29.7655 32.2626C29.1985 35.6145 28.915 38.9665 29.0568 41.2011H26.222C26.222 40.0838 26.3637 38.2682 26.6472 36.1732H26.5054C24.5211 40.0838 22.1115 41.6201 19.7019 41.6201C16.5836 41.6201 14.5992 38.9665 14.5992 35.1955C14.5992 28.4916 19.1349 21.5084 26.7889 21.5084C28.4898 21.5084 30.3324 21.7877 31.4664 22.2067L29.7655 32.2626ZM26.0802 24.0223C21.5445 24.0223 17.8592 29.1899 17.7175 34.4972C17.7175 36.5922 18.4262 38.6871 20.6941 38.6871C23.2454 38.6871 26.222 35.0559 27.0724 30.0279L28.0646 24.162C27.7811 24.162 27.0724 24.0223 26.0802 24.0223ZM42.6639 24.8603C42.097 24.4413 40.963 24.0223 39.5456 24.0223C37.703 24.0223 36.4273 25.2793 36.4273 26.9553C36.4273 28.352 37.2778 29.1899 38.8369 30.1676C40.8213 31.4246 42.097 33.1006 42.097 35.1955C42.097 39.2458 39.1204 41.4804 35.2934 41.4804C33.4507 41.4804 31.7499 40.7821 30.8994 40.2235L31.7499 37.8492C32.6003 38.4078 34.1595 39.1061 35.5769 39.1061C37.5612 39.1061 38.9786 37.7095 38.9786 36.0335C38.9786 34.4972 38.4117 33.6592 36.569 32.5419C34.5847 31.2849 33.4507 29.6089 33.4507 27.6536C33.4507 24.3017 36.1438 21.648 39.8291 21.648C41.3882 21.648 42.8057 22.067 43.5144 22.6257L42.6639 24.8603ZM53.011 36.4525C51.1684 40.6425 49.3257 43.9944 46.9161 46.5084C44.9318 48.743 42.8057 49.581 41.8135 49.8603L41.1048 47.067C41.8135 46.7877 43.0891 46.2291 44.3648 45.2514C45.4987 44.2737 46.7744 42.7374 47.7666 40.7821C47.9083 40.5028 47.9083 40.2235 47.9083 39.9441L44.3648 21.9274H47.4831L49.184 32.2626C49.6092 34.4972 49.751 35.8939 50.0344 37.2905H50.1762C50.6014 36.0335 51.1684 34.7765 52.0188 32.5419L56.5545 21.7877H59.5311L53.011 36.4525Z" fill="#252525"/>
<path d="M83.4858 41.4804C81.6431 41.4804 80.3675 41.0614 79.6588 40.6425H79.517L78.0996 48.8827H75.123L78.6666 28.6313C79.0918 26.257 79.3753 23.743 79.6588 21.7877H82.3518L81.7849 25.419H81.9266C83.4858 22.905 85.8954 21.3687 88.1632 21.3687C91.9902 21.3687 93.5494 24.7207 93.5494 28.352C93.6911 35.1955 89.2972 41.4804 83.4858 41.4804ZM87.171 24.162C84.7614 24.162 81.7849 27.095 80.9344 32.5419L80.084 37.8492C80.7927 38.5475 82.0684 38.9665 83.4858 38.9665C87.3128 38.9665 90.5728 33.6592 90.5728 28.6313C90.5728 26.5363 89.7224 24.162 87.171 24.162ZM109.141 32.2626C108.574 35.6145 108.29 38.9665 108.432 41.2011H105.597C105.597 40.0838 105.739 38.2682 106.023 36.1732H105.881C103.896 40.0838 101.629 41.6201 99.0773 41.6201C95.959 41.6201 93.9746 38.9665 93.9746 35.1955C93.9746 28.4916 98.5103 21.5084 106.164 21.5084C107.865 21.5084 109.708 21.7877 110.842 22.2067L109.141 32.2626ZM105.456 24.0223C100.92 24.0223 97.2347 29.1899 97.2347 34.4972C97.2347 36.5922 97.9434 38.6871 100.211 38.6871C102.763 38.6871 105.739 35.0559 106.59 30.0279L107.582 24.162C107.157 24.162 106.448 24.0223 105.456 24.0223ZM120.48 36.4525C118.638 40.6425 116.795 43.9944 114.385 46.5084C112.401 48.743 110.275 49.581 109.283 49.8603L108.574 47.067C109.283 46.7877 110.558 46.229 111.834 45.2514C112.968 44.2737 114.244 42.7374 115.236 40.7821C115.378 40.5028 115.378 40.2235 115.378 39.9441L111.834 21.9274H114.952L116.653 32.2626C117.078 34.4972 117.22 35.8939 117.504 37.2905H117.645C118.071 36.0335 118.638 34.7765 119.488 32.5419L123.882 21.7877H127L120.48 36.4525Z" fill="#252525"/>
</g>
<defs>
<clipPath id="clip0_8669_36032">
<rect width="127" height="50" fill="white"/>
</clipPath>
</defs>
</svg>
