<svg width="119" height="40" viewBox="0 0 119 40" fill="none" xmlns="http://www.w3.org/2000/svg">
<path d="M96.833 9.53464C96.833 4.26588 92.0512 0 86.1514 0C84.5481 0 83.0315 0.311111 81.6665 0.878431L93.4768 16.4706C95.6432 14.6276 96.8509 12.1316 96.833 9.53464Z" fill="#E14C9A"/>
<path d="M0 0V31.332C0 36.1 3.56207 40 7.93333 40V8.668L7.92937 8.538C7.85598 3.81 4.33557 0 0 0ZM30.0753 31.316V31.318H20.1507V24.344H30.0753C31.9019 24.344 33.3835 25.904 33.3835 27.83C33.3835 29.756 31.9019 31.316 30.0753 31.316ZM34.3057 16.456L34.3216 16.412C34.793 15.06 35.0331 13.6371 35.0316 12.204C35.0316 5.512 29.9186 0.084 23.5858 0.01C23.5501 0.01 23.3081 0 23.2189 0H11.904C11.904 4.752 15.4938 8.656 20.0971 8.686H23.4569C25.2855 8.686 26.7671 10.246 26.7671 12.172C26.7671 14.098 25.2855 15.66 23.4569 15.66V15.664H15.9995C13.7723 15.676 11.9674 17.546 11.9059 19.882L11.904 19.862V19.918L11.9 20.004L11.904 20.088V31.31C11.904 36.078 15.5473 39.946 20.0594 39.998H20.0654L20.1507 40L20.2359 39.998H30.46C36.6738 39.784 41.65 34.406 41.65 27.808C41.65 22.644 38.6036 18.236 34.3057 16.456ZM64.4583 31.312C58.5738 31.312 53.8039 26.248 53.8039 20.004C53.8039 13.758 58.5738 8.694 64.4583 8.694C70.3429 8.694 75.1128 13.758 75.1128 20.004C75.1128 26.248 70.3429 31.312 64.4583 31.312ZM64.4563 0C54.0438 0 45.6167 8.944 45.6167 20C45.6167 31.056 54.0419 40 64.4563 40C74.8728 40 83.3 31.056 83.3 20C83.3 8.944 74.8728 0 64.4563 0ZM119 0.794C117.654 0.270023 116.224 0.000853993 114.781 0C110.64 0 106.991 2.164 104.851 5.446H104.849L96.0132 19.244C96.0132 19.244 83.3 39.146 83.3 39.204C84.6149 39.716 86.037 39.998 87.5245 39.998C91.6677 39.998 95.315 37.834 97.455 34.552H97.457V34.548L101.229 28.732L105.006 34.784C107.156 37.938 110.726 40 114.764 40C116.255 40 117.683 39.72 118.998 39.204L106.808 20.114C109.05 16.574 119 0.852 119 0.794Z" fill="#3D3F40"/>
</svg>
