<svg width="150" height="47" viewBox="0 0 150 47" fill="none" xmlns="http://www.w3.org/2000/svg">
<path d="M0.193914 10.7672H7.54246V35.4948H0.193914V10.7672ZM7.78884 3.89345C7.78884 6.01665 6.24093 7.73647 3.81999 7.73647C1.5008 7.73647 -0.04711 6.01665 0.00109474 3.89345C-0.04711 1.66942 1.5008 0 3.86819 0C6.23559 0 7.73528 1.66942 7.78884 3.89345Z" fill="#E84F35"/>
<path d="M88.0396 31.3827C88.0396 28.6433 89.8338 26.6602 92.4103 26.6602C94.9863 26.6602 96.7323 28.5929 96.7323 31.3827C96.7323 34.0773 94.9811 36.0549 92.362 36.0549C89.8338 36.0549 88.0396 34.0773 88.0396 31.3827Z" fill="#E84F35"/>
<path d="M20.6811 17.2599C21.3131 17.4112 22.0897 17.4672 23.1556 17.4672C27.0923 17.4672 29.5186 15.3832 29.5186 11.8818C29.5186 8.73349 27.4297 6.85679 23.7394 6.85679C22.2343 6.85679 21.2167 7.00805 20.6811 7.15932V17.2599ZM13.3486 1.71968C15.6303 1.31072 18.8386 1.00821 23.3538 1.00821C27.9172 1.00821 31.1737 1.92135 33.3589 3.75324C35.4478 5.47866 36.8565 8.32454 36.8565 11.6802C36.8565 15.0302 35.7853 17.8761 33.8464 19.8089C31.3183 22.2962 27.5851 23.4166 23.2091 23.4166C22.2397 23.4166 21.3613 23.3662 20.6811 23.2653V35.5059H13.3486V1.71968Z" fill="#7B9AA9"/>
<path d="M53.0748 23.764C49.1918 23.7135 46.1817 24.6771 46.1817 27.6742C46.1817 29.6517 47.4458 30.6209 49.0955 30.6209C50.938 30.6209 52.4483 29.3548 52.9305 27.7806C53.0271 27.3773 53.0748 26.9179 53.0748 26.4585V23.764ZM53.9478 35.4947L53.5087 33.0074H53.3644C51.811 34.9905 49.3793 36.0549 46.5674 36.0549C41.7576 36.0549 38.8921 32.4023 38.8921 28.4361C38.8921 21.9881 44.4303 18.8901 52.8288 18.9405V18.5876C52.8288 17.2655 52.1483 15.3888 48.5063 15.3888C46.08 15.3888 43.5037 16.2515 41.9504 17.2711L40.59 12.2964C42.2397 11.3273 45.4962 10.1116 49.8185 10.1116C57.7347 10.1116 60.2577 14.9911 60.2577 20.8285V29.4668C60.2577 31.8534 60.3537 34.139 60.5951 35.5115H53.9478V35.4947Z" fill="#7B9AA9"/>
<path d="M71.0442 10.6608L74.5902 22.851C74.9759 24.3243 75.4632 26.1506 75.7523 27.4727H75.8972C76.2345 26.1506 76.6254 24.2739 76.9627 22.851L79.8766 10.6608H87.7928L82.26 27.0133C78.8587 36.8674 76.5771 40.8281 73.9046 43.3154C71.3338 45.6515 68.6125 46.4638 66.7648 46.7215L65.2119 40.1726C66.1326 40.0214 67.3004 39.562 68.4148 38.8506C69.5286 38.2399 70.7442 37.0243 71.4729 35.7526C71.7138 35.3996 71.8586 34.9907 71.8586 34.6378C71.8586 34.3857 71.8103 33.9767 71.5155 33.3661L62.8228 10.6608H71.0442Z" fill="#7B9AA9"/>
<path d="M123.587 27.5231C123.587 30.7724 123.684 33.4165 123.78 35.4949H117.369L117.032 31.9936H116.887C115.966 33.5174 113.732 36.0551 109.453 36.0551C104.648 36.0551 101.103 32.9068 101.103 25.2375V10.6608H108.531V24.0218C108.531 27.6296 109.651 29.8088 112.222 29.8088C114.263 29.8088 115.425 28.3354 115.912 27.1198C116.105 26.6604 116.153 26.0554 116.153 25.4447V10.6608H123.582V27.5231H123.587Z" fill="#7B9AA9"/>
<path d="M142.136 23.764C138.247 23.7135 135.238 24.6771 135.238 27.6742C135.238 29.6517 136.501 30.6209 138.151 30.6209C139.999 30.6209 141.504 29.3548 141.986 27.7806C142.083 27.3773 142.136 26.9179 142.136 26.4585V23.764ZM143.014 35.4947L142.575 33.0074H142.431C140.877 34.9905 138.451 36.0549 135.634 36.0549C130.824 36.0549 127.964 32.4023 127.964 28.4361C127.964 21.9881 133.497 18.8901 141.9 18.9405V18.5876C141.9 17.2655 141.22 15.3888 137.578 15.3888C135.152 15.3888 132.575 16.2515 131.022 17.2711L129.662 12.2964C131.312 11.3273 134.568 10.1116 138.885 10.1116C146.801 10.1116 149.324 14.9911 149.324 20.8285V29.4668C149.324 31.8534 149.42 34.139 149.661 35.5115H143.014V35.4947Z" fill="#7B9AA9"/>
</svg>
