<svg width="127" height="49" viewBox="0 0 127 49" fill="none" xmlns="http://www.w3.org/2000/svg">
<g clip-path="url(#clip0_8670_36044)">
<path fill-rule="evenodd" clip-rule="evenodd" d="M86.7174 28.2215L87.9715 28.5989C87.8869 28.9488 87.7546 29.2412 87.5747 29.4762C87.3947 29.7122 87.1695 29.8903 86.899 30.0104C86.6315 30.1285 86.2905 30.1875 85.876 30.1875C85.3723 30.1875 84.9604 30.1158 84.6403 29.9725C84.3232 29.825 84.0483 29.5679 83.8155 29.2011C83.5843 28.8344 83.4688 28.3645 83.4688 27.7912C83.4688 27.0283 83.6719 26.4424 84.0783 26.0335C84.4877 25.6226 85.0645 25.4171 85.8087 25.4171C86.3919 25.4171 86.8501 25.5351 87.1835 25.7712C87.5188 26.0072 87.7675 26.3676 87.9296 26.8523L86.666 27.1305C86.6232 26.9893 86.5771 26.8871 86.5275 26.8239C86.4482 26.7143 86.3508 26.631 86.2354 26.5741C86.1197 26.5151 85.99 26.4856 85.8465 26.4856C85.5227 26.4856 85.2742 26.6152 85.101 26.8744C84.9704 27.0683 84.9051 27.3718 84.9051 27.7849C84.9051 28.297 84.9834 28.6479 85.1401 28.8376C85.2971 29.0273 85.5168 29.1221 85.7992 29.1221C86.0733 29.1221 86.2797 29.0462 86.4183 28.8945C86.5601 28.7428 86.6626 28.5215 86.7257 28.2306L86.7174 28.2215ZM88.4833 27.8029C88.4833 27.0505 88.694 26.4646 89.1152 26.0452C89.536 25.6258 90.1223 25.4161 90.8741 25.4161C91.645 25.4161 92.2393 25.6227 92.6569 26.0357C93.0747 26.4467 93.2836 27.0238 93.2836 27.7669C93.2836 28.306 93.192 28.7481 93.0087 29.0933C92.8288 29.4369 92.5663 29.7056 92.2213 29.8995C91.8784 30.0904 91.4508 30.1859 90.9386 30.1859C90.4179 30.1859 89.9861 30.1037 89.6432 29.9393C89.3045 29.7749 89.0283 29.5127 88.8145 29.1528C88.6028 28.7945 88.497 28.3456 88.497 27.8061L88.4833 27.8029ZM89.9137 27.8092C89.9137 28.2746 90 28.609 90.1728 28.8126C90.3463 29.016 90.5823 29.1177 90.8808 29.1177C91.1877 29.1177 91.4258 29.0174 91.5952 28.8167C91.7624 28.6161 91.846 28.2586 91.846 27.7441C91.846 27.31 91.7571 26.9935 91.5793 26.7948C91.4036 26.5925 91.1655 26.4913 90.8649 26.4913C90.5749 26.4913 90.3431 26.5925 90.1696 26.7948C89.9939 26.995 89.9061 27.3311 89.9061 27.8032L89.9137 27.8092ZM94.0421 25.4945H95.9243L96.6513 28.2999L97.3743 25.4945H99.2507V30.105H98.0823V26.5896L97.1774 30.105H96.1202L95.2185 26.5896V30.105H94.0437V25.4949L94.0421 25.4945ZM100.153 25.4945H102.532C103.05 25.4945 103.438 25.6172 103.694 25.8625C103.954 26.1076 104.083 26.4562 104.083 26.9083C104.083 27.3734 103.942 27.7366 103.66 27.998C103.38 28.2593 102.951 28.39 102.375 28.39H101.591V30.1015H100.154V25.4895L100.153 25.4945ZM101.591 27.4599H101.942C102.217 27.4599 102.411 27.4128 102.523 27.3186C102.634 27.2223 102.69 27.0997 102.69 26.9509C102.69 26.8062 102.642 26.6835 102.545 26.583C102.448 26.4818 102.266 26.4312 101.999 26.4312H101.59V27.4586L101.591 27.4599ZM104.835 25.4945H106.264V28.9701H108.496V30.105H104.832V25.4949L104.835 25.4945ZM109.21 25.4945H110.642V30.105H109.207V25.4949L109.21 25.4945ZM114.515 29.344H112.884L112.658 30.1053H111.194L112.934 25.4961H114.493L116.233 30.1084H114.738L114.509 29.3497L114.515 29.344ZM114.214 28.3473L113.7 26.6901L113.188 28.3473H114.208H114.214ZM116.703 25.4945H118.04L119.783 28.0451V25.4945H121.132V30.105H119.783L118.049 27.5734V30.1056H116.703V25.4942V25.4945ZM121.761 25.4945H126.111V26.6332H124.65V30.105H123.221V26.6339H121.761V25.4952V25.4945Z" fill="#225E63"/>
<path fill-rule="evenodd" clip-rule="evenodd" d="M69.4888 32.5322L73.6332 31.2317L72.2914 28.2553C71.2932 29.4787 70.3102 31.0657 69.4879 32.5294L69.4888 32.5322ZM68.0769 18.9071L59.9502 0.880127L0.456055 4.24374L16.9381 49.0234L48.6659 39.066C46.653 36.1778 45.91 32.7444 48.2404 31.0663C50.8535 29.1885 54.7809 31.3603 57.3051 34.4489C59.7276 30.3962 66.5221 21.0419 68.0779 18.908L68.0769 18.9071Z" fill="#225E63"/>
<path fill-rule="evenodd" clip-rule="evenodd" d="M58.1033 13.9052C60.5935 13.9052 62.6125 12.0094 62.6125 9.67066C62.6125 7.33194 60.5912 5.43738 58.102 5.43738C55.6109 5.43738 53.5926 7.3332 53.5926 9.67224C53.5926 12.0116 55.6109 13.9071 58.1024 13.9071L58.1033 13.9052ZM54.414 15.7419H61.7927V34.9253H54.414V15.7426V15.7419ZM50.7707 21.3406C50.8215 21.3712 50.8659 21.3459 50.8659 21.2856V16.426C50.8659 16.3641 50.8215 16.2901 50.7675 16.261C50.7675 16.261 49.7991 15.6329 46.8464 15.458C46.6876 15.3711 44.1159 15.3581 43.4047 15.458C32.6732 16.3147 32.2763 24.0447 32.2763 24.3982V26.2744C32.2763 26.5036 32.2763 34.4071 43.4047 35.107C44.4905 35.1886 46.6209 35.107 46.8464 35.107C49.4086 35.107 51.1834 34.3379 51.1834 34.3379C51.2374 34.3132 51.285 34.2462 51.285 34.1849V29.6358C51.285 29.5738 51.2437 29.5517 51.1898 29.5836C51.1898 29.5836 50.3928 30.2222 46.8908 30.5605C45.897 30.6711 45.4271 30.6205 45.0684 30.5605C40.1027 29.729 39.8645 26.1062 39.8645 26.1062C39.8582 26.0461 39.8518 25.9481 39.8518 25.8881V24.5066C39.8518 24.4465 39.8582 24.3485 39.8645 24.2885C39.8645 24.2885 40.1979 20.4064 45.0652 19.9954H46.8845C49.0339 20.2831 50.758 21.3421 50.758 21.3421L50.7707 21.3406ZM11.8105 34.8488C11.8105 34.9101 11.8591 34.9594 11.9207 34.9594H19.1083C19.1692 34.9594 19.2188 34.9101 19.2188 34.851V29.283C19.2188 29.2242 19.268 29.1774 19.3299 29.1796C19.3299 29.1796 30.8034 30.0057 30.8034 22.3367C30.8034 16.2853 23.6047 15.6221 21.2349 15.7328C21.1873 15.7359 11.922 15.7328 11.922 15.7328C11.8617 15.7328 11.8109 15.7849 11.8109 15.844V34.8497L11.8105 34.8488ZM19.0918 24.9255V19.9098H20.8501C20.8501 19.9098 23.4091 20.0248 23.6092 21.7575C23.6568 21.8935 23.6441 22.7407 23.6092 22.7881C23.2821 24.8265 21.0596 24.9264 21.0596 24.9264L19.0975 24.9233L19.0918 24.9255Z" fill="#FEFEFE"/>
<path fill-rule="evenodd" clip-rule="evenodd" d="M58.306 44.1873C58.906 44.1873 59.3648 44.1873 60.123 43.8522C62.7433 42.4808 71.5616 21.0378 80.8628 14.442C80.9167 14.3997 80.9939 14.3383 81.0383 14.2754C81.098 14.1885 81.1002 14.0997 81.1002 14.0997C81.1002 14.0997 81.1002 13.6602 79.721 13.6602C71.4406 13.4358 62.83 30.7186 58.3056 37.5564C58.2485 37.6323 57.9373 37.5564 57.9373 37.5564C57.9373 37.5564 54.9052 33.9937 52.27 32.628C52.216 32.5995 51.9144 32.5079 51.6032 32.53C51.3968 32.53 50.1713 32.7734 49.5998 33.3772C48.9267 34.0853 48.9394 34.4837 48.9457 35.3467C48.9489 35.4163 48.9934 35.7039 49.0759 35.8493C49.7204 36.9716 52.6637 40.9991 55.0735 43.2215C55.4481 43.487 56.0165 44.192 58.3088 44.192L58.306 44.1873Z" fill="#2BBC5D"/>
<path fill-rule="evenodd" clip-rule="evenodd" d="M83.3076 7.94301H90.1974C91.5563 7.94301 92.6519 8.12637 93.4841 8.49307C94.3238 8.86021 95.0166 9.38709 95.5625 10.0737C96.1086 10.7587 96.5044 11.5567 96.7499 12.4678C96.9955 13.3782 97.1182 14.3424 97.1182 15.3603C97.1182 16.9557 96.9341 18.196 96.5658 19.0812C96.2043 19.9579 95.6992 20.6956 95.0507 21.2941C94.4023 21.8842 93.7062 22.2773 92.9622 22.4733C91.9451 22.743 91.0236 22.8779 90.1977 22.8779H83.3079V7.93795L83.3076 7.94301ZM87.9457 11.3272V19.4928H89.0798C90.0492 19.4928 90.7386 19.3874 91.148 19.1767C91.5573 18.9596 91.8776 18.5865 92.1087 18.0576C92.3399 17.5201 92.4554 16.6539 92.4554 15.459C92.4554 13.8762 92.1954 12.793 91.6753 12.2092C91.1568 11.6254 90.2965 11.3335 89.0947 11.3335H87.938L87.9457 11.3272ZM98.3797 17.9438L102.79 17.6687C102.885 18.3832 103.079 18.9269 103.371 19.2999C103.847 19.9048 104.53 20.2072 105.419 20.2072C106.081 20.2072 106.589 20.0544 106.943 19.7489C107.302 19.4369 107.482 19.0765 107.482 18.6677C107.482 18.282 107.311 17.9364 106.968 17.6308C106.625 17.3252 105.833 17.0375 104.593 16.7678C102.559 16.3125 101.108 15.7077 100.24 14.9532C99.366 14.2008 98.9289 13.2398 98.9289 12.0701C98.9289 11.3029 99.1512 10.5801 99.5957 9.90143C100.044 9.21648 100.716 8.68012 101.612 8.29233C102.514 7.89823 103.745 7.70117 105.308 7.70117C107.223 7.70117 108.683 8.0584 109.686 8.77285C110.693 9.48098 111.293 10.6096 111.486 12.1586L107.114 12.4147C106.998 11.7424 106.751 11.2534 106.374 10.9478C106.004 10.6422 105.492 10.4894 104.838 10.4894C104.298 10.4894 103.891 10.6053 103.618 10.8372C103.343 11.0627 103.206 11.3377 103.206 11.6623C103.206 11.9004 103.318 12.1143 103.542 12.304C103.76 12.5021 104.279 12.6865 105.098 12.8572C107.126 13.2935 108.576 13.7361 109.449 14.185C110.33 14.6276 110.968 15.1787 111.364 15.8383C111.768 16.498 111.97 17.2356 111.97 18.0512C111.97 19.0102 111.703 19.8943 111.17 20.7036C110.636 21.5129 109.892 22.1279 108.938 22.5488C107.985 22.9598 106.783 23.1653 105.329 23.1653C102.777 23.1653 101.009 22.6763 100.025 21.6984C99.0407 20.7205 98.484 19.4771 98.3549 17.9681L98.3797 17.9438ZM113.172 17.9438L117.582 17.6687C117.677 18.3832 117.871 18.9269 118.163 19.2999C118.639 19.9048 119.322 20.2072 120.211 20.2072C120.873 20.2072 121.381 20.0544 121.735 19.7489C122.097 19.4369 122.278 19.0765 122.278 18.6677C122.278 18.282 122.106 17.9364 121.764 17.6308C121.421 17.3252 120.629 17.0375 119.389 16.7678C117.355 16.3125 115.904 15.7077 115.036 14.9532C114.162 14.2008 113.724 13.2398 113.724 12.0701C113.724 11.3029 113.946 10.5801 114.388 9.90143C114.839 9.21648 115.511 8.68012 116.404 8.29233C117.304 7.89823 118.536 7.70117 120.1 7.70117C122.015 7.70117 123.475 8.0584 124.478 8.77285C125.488 9.48098 126.088 10.6096 126.278 12.1586L121.91 12.4115C121.791 11.7392 121.544 11.2502 121.17 10.9447C120.802 10.6391 120.289 10.4863 119.633 10.4863C119.093 10.4863 118.687 10.6022 118.414 10.834C118.139 11.0595 118.001 11.3356 118.001 11.6623C118.001 11.9004 118.113 12.1143 118.338 12.304C118.556 12.5021 119.074 12.6865 119.893 12.8572C121.921 13.2914 123.372 13.7329 124.246 14.1818C125.125 14.6244 125.763 15.1755 126.161 15.8352C126.563 16.4948 126.764 17.2325 126.764 18.0481C126.764 19.007 126.499 19.8911 125.967 20.7004C125.434 21.5097 124.689 22.1251 123.732 22.5466C122.78 22.9597 121.577 23.1662 120.125 23.1662C117.573 23.1662 115.804 22.6762 114.82 21.6962C113.838 20.7183 113.281 19.4749 113.15 17.9659L113.172 17.9438Z" fill="#225E63"/>
</g>
<defs>
<clipPath id="clip0_8670_36044">
<rect width="127" height="49" fill="white"/>
</clipPath>
</defs>
</svg>
