<svg width="124" height="40" viewBox="0 0 124 40" fill="none" xmlns="http://www.w3.org/2000/svg">
<path fill-rule="evenodd" clip-rule="evenodd" d="M64.1241 12.7794C64.0667 18.3381 69.0898 21.4613 72.8787 23.2951C76.7824 25.1862 78.1028 26.4183 78.0741 28.1089C78.0454 30.7163 74.9741 31.8338 72.075 31.8911C67.0519 31.9771 64.1241 30.5444 61.7991 29.4556L59.9907 37.937C62.3157 38.9971 66.65 39.9427 71.1278 40C81.662 40 88.5222 34.8138 88.5796 26.7622C88.6083 16.5616 74.4287 15.9885 74.5435 11.4327C74.5722 10.0573 75.8926 8.56734 78.7917 8.19484C80.2269 7.99427 84.188 7.85101 88.6657 9.91404L90.4167 1.7192C88.0056 0.830946 84.9056 0 81.0306 0C71.1565 0 64.1815 5.27221 64.1241 12.7794ZM107.352 0.716332C105.429 0.716332 103.821 1.83381 103.075 3.55301L88.0343 39.3696H98.5398L100.635 33.6103H113.494L114.7 39.3696H124L115.906 0.716332H107.352ZM108.816 11.1748L111.858 25.702H103.534L108.816 11.1748ZM51.3796 0.716332L43.0843 39.3696H53.1019L61.3972 0.716332H51.3796ZM36.5685 0.716332L26.1204 27.0487L21.9009 4.67049C21.413 2.17765 19.4611 0.716332 17.2796 0.716332H0.229631L0 1.83381C3.50185 2.5788 7.46296 3.81089 9.87407 5.12894C11.338 5.93124 11.7685 6.61891 12.2565 8.53868L20.2361 39.3983H30.8278L47.0741 0.716332H36.5685Z" fill="#1A1F71"/>
</svg>
