<svg width="428" height="428" viewBox="0 0 428 428" fill="none" xmlns="http://www.w3.org/2000/svg">
<path d="M136.105 187.464L125.833 195.596C124.121 193.028 121.553 190.888 118.129 189.604C115.133 188.32 111.709 187.464 108.285 187.464C100.581 187.464 94.161 190.032 89.453 195.168C84.745 200.304 82.177 207.152 82.177 214.856C82.177 222.988 84.317 229.836 89.025 234.972C93.733 240.108 99.725 242.676 107.857 242.676C115.989 242.676 121.981 239.68 126.261 234.116L136.961 241.82C130.113 250.808 120.269 255.088 107.857 255.088C95.873 255.088 86.457 251.236 78.753 243.96C71.049 236.684 67.625 226.84 67.625 215.284C67.625 203.3 71.477 193.884 79.181 186.608C86.885 179.332 96.729 175.908 108.713 175.908C113.849 175.908 118.985 176.764 124.121 178.904C129.257 180.616 133.109 183.612 136.105 187.464Z" fill="#EF8B22"/>
<path d="M144.664 253.376V202.016H157.076V210.576C158.36 207.58 160.5 205.012 163.068 203.3C165.636 201.588 168.632 200.732 172.056 200.732C173.34 200.732 174.196 200.732 175.052 201.16V212.716C173.768 212.288 172.484 212.288 171.2 212.288C169.06 212.288 166.92 212.716 165.208 213.144C163.496 214 162.212 214.856 161.356 215.712C160.5 216.568 159.644 217.852 159.216 219.136C158.788 220.42 158.36 221.704 157.932 222.56C157.504 223.416 157.504 224.7 157.504 225.556V252.948H144.664V253.376Z" fill="#EF8B22"/>
<path d="M231.547 228.552C231.547 229.836 231.547 231.12 231.547 231.976H192.599C193.027 235.4 194.311 238.396 197.307 240.964C200.303 243.532 203.299 244.388 207.151 244.388C213.143 244.388 217.423 242.248 220.847 237.968L229.407 244.816C224.271 251.664 216.995 255.088 207.579 255.088C199.447 255.088 193.028 252.52 187.892 247.812C182.756 243.104 180.188 236.256 180.188 228.124C180.188 219.992 182.756 213.144 187.892 208.436C193.028 203.3 199.447 200.732 207.151 200.732C214.427 200.732 220.419 203.3 225.127 208.008C228.979 212.716 231.547 219.564 231.547 228.552ZM192.172 222.56H218.279C218.279 219.136 217.423 216.14 215.283 213.572C213.143 211.432 210.147 210.148 206.295 210.148C202.443 210.148 199.447 211.432 196.451 213.572C193.884 216.14 192.6 219.136 192.172 222.56Z" fill="#EF8B22"/>
<path d="M292.753 172.484V253.376H280.769V245.672C279.057 248.668 276.489 250.808 273.493 252.52C270.497 254.232 267.073 255.088 263.221 255.088C255.517 255.088 249.525 252.52 244.817 247.384C240.109 242.248 237.969 235.828 237.969 228.124C237.969 220.42 240.109 214 244.817 208.864C249.525 203.728 255.517 201.16 262.793 201.16C270.069 201.16 275.633 203.728 279.913 209.292H280.341V173.34H292.753V172.484ZM254.661 216.14C252.093 219.564 250.809 223.416 250.809 227.696C250.809 231.976 252.093 235.828 254.661 239.252C257.229 242.676 261.081 244.388 265.361 244.388C269.641 244.388 273.493 242.676 276.061 239.252C278.629 235.828 280.341 231.976 280.341 227.696C280.341 223.416 279.057 219.564 276.061 216.14C273.493 212.716 269.641 211.004 265.361 211.004C260.653 211.004 257.229 212.716 254.661 216.14Z" fill="#EF8B22"/>
<path d="M305.593 190.032C303.881 188.32 303.453 186.608 303.453 184.468C303.453 182.328 304.309 180.616 305.593 178.904C307.305 177.192 309.017 176.764 311.157 176.764C313.297 176.764 315.437 177.62 317.149 178.904C318.861 180.188 319.717 182.328 319.717 184.468C319.717 186.608 318.861 188.32 317.149 190.032C315.437 191.316 313.725 192.172 311.157 192.172C309.017 192.6 307.305 191.744 305.593 190.032ZM305.165 253.376V202.016H318.005V253.376H305.165Z" fill="#EF8B22"/>
<path d="M335.125 212.288H326.137V202.016H335.125V187.036H347.537V202.016H360.377V212.288H347.537V236.256C347.537 238.824 347.965 240.964 348.821 242.248C349.677 243.532 351.389 244.388 353.957 244.388C356.097 244.388 357.809 243.96 359.521 243.532L359.949 253.376C357.381 254.232 354.813 254.66 351.389 254.66C344.969 254.66 340.689 252.948 338.549 249.952C335.981 246.528 335.125 242.248 335.125 236.684V212.288Z" fill="#EF8B22"/>
<path d="M371.505 72.3321C369.365 70.1921 366.369 68.4801 362.945 68.4801C356.525 68.4801 351.389 73.6161 351.389 80.0361C351.389 83.0321 352.673 85.6001 354.385 87.7401C385.629 122.408 402.749 167.348 402.749 213.572C402.749 317.576 318.005 402.32 214.001 402.32C109.997 402.32 25.2526 318.004 25.2526 214C25.2526 109.996 109.997 25.2521 214.001 25.2521C230.693 25.2521 246.957 27.3921 262.793 31.6721C263.649 32.1001 264.505 32.1001 265.789 32.1001C272.209 32.1001 277.345 26.9641 277.345 20.5441C277.345 15.4081 273.921 10.7001 268.785 9.41614C251.237 4.70814 232.405 2.14014 214.001 2.14014C97.1566 2.14014 2.14062 97.1561 2.14062 214C2.14062 330.844 97.1566 425.86 214.001 425.86C330.845 425.86 425.861 330.844 425.861 214C425.861 161.784 406.601 111.28 371.505 72.3321Z" fill="#EF8B22"/>
<path d="M290.185 62.0603H303.881V75.7563C303.881 82.1763 309.017 87.3123 315.437 87.3123C321.857 87.3123 326.993 82.1763 326.993 75.7563V62.0603H340.689C347.109 62.0603 352.245 56.9243 352.245 50.5043C352.245 44.0843 347.109 38.9483 340.689 38.9483H326.993V25.2523C326.993 18.8323 321.857 13.6963 315.437 13.6963C309.017 13.6963 303.881 18.8323 303.881 25.2523V38.9483H290.185C283.765 38.9483 278.629 44.0843 278.629 50.5043C278.629 56.9243 283.765 62.0603 290.185 62.0603Z" fill="#EF8B22"/>
</svg>
